<svg xmlns="http://www.w3.org/2000/svg" width="650" height="622" viewBox="0 0 470 450">
  <g id="streamlinehq-motivate-someone-for-working-work-400" transform="translate(-5.006 -7.985)">
    <path id="Path_573" data-name="Path 573" d="M160.589,105.575a84,84,0,0,0,12.507.566,42.837,42.837,0,0,0,11.219-1.594s-.98,5.505-3.962,6.536-16.572,1.131-18.122-.1S160.589,105.575,160.589,105.575Z" transform="translate(230.115 139.554)" fill="#fff"/>
    <path id="Path_574" data-name="Path 574" d="M6.164,151.789A90.333,90.333,0,0,0,17.4,193.857c8.384,14.939-8.819,39.222,11.7,49.863s108.442,2.9,140.195,4.837,126.541-1.509,175.4-.056c37.064,1.1,87.3,2.52,109.1,1.357,6.927-.37,10.343-.583,11.236-8.963,1.111-10.4,10.108-20.427,3.36-22C460.081,216.958,6.164,151.789,6.164,151.789Z" transform="translate(1.678 207.693)" fill="#f9f1dd"/>
    <path id="Path_575" data-name="Path 575" d="M137.813,35.024a5.319,5.319,0,0,1-.517,3.137c-.272.889-.279.852-1.146.918-1.905.142-1.873,1.051-2.378-1.092C133.581,37.189,136.5,36.087,137.813,35.024Z" transform="translate(189.764 39.178)" fill="#ac8eff"/>
    <path id="Path_576" data-name="Path 576" d="M133.223,30.413c3.539,1.4,5.6,7.908,4.44,9.164a7.178,7.178,0,0,1-3.311,2.023,90.62,90.62,0,0,0-1.129-11.187Z" transform="translate(188.973 32.497)" fill="#e4fd6f"/>
    <path id="Path_577" data-name="Path 577" d="M136.712,30.569a48.265,48.265,0,0,1,1.131,11.14,37.912,37.912,0,0,0-8.4-3.152,16.052,16.052,0,0,0,3.323-3.429c.573-.887,1.959-1.308,2.672-2.8A10.148,10.148,0,0,1,136.712,30.569Z" transform="translate(183.42 32.723)" fill="#ac8eff"/>
    <path id="Path_578" data-name="Path 578" d="M138.154,31.036c-2.346,2.821-4.736,5.388-7.388,8.1-1.139-7.508-.7-5.5-2.983-9.889a14.6,14.6,0,0,1,10.371,1.79Z" transform="translate(180.992 30.393)" fill="#e4fd6f"/>
    <path id="Path_579" data-name="Path 579" d="M133.455,37.672c.287,3.482-.541.456-8.165,2.16a2.5,2.5,0,0,1-.8-.069c.316-.267,5.826-9.228,6.487-10.07a13.408,13.408,0,0,1,2.476,7.979Z" transform="translate(176.132 31.454)" fill="#ac8eff"/>
    <path id="Path_580" data-name="Path 580" d="M132.422,29.226a93.822,93.822,0,0,1-6.139,9.759c-2.858-5.233-1.092-3.514-4.163-7.183,1.34-.541,3.091-1.078,6.039-2a13.792,13.792,0,0,1,4.264-.573Z" transform="translate(172.642 30.772)" fill="#e4fd6f"/>
    <path id="Path_581" data-name="Path 581" d="M127.4,35.794c1.93,4.624,2.3,1.665-7.837,6.367a68.652,68.652,0,0,1,4.9-11.172,11.63,11.63,0,0,1,2.939,4.8Z" transform="translate(168.86 33.332)" fill="#ac8eff"/>
    <path id="Path_582" data-name="Path 582" d="M126.386,30.6a94.688,94.688,0,0,0-4.9,11.356c-1.359-2.466-2.807-2.86-4.521-6.2a15.952,15.952,0,0,1,9.419-5.153Z" transform="translate(165.042 32.768)" fill="#e4fd6f"/>
    <path id="Path_583" data-name="Path 583" d="M117.126,33.78a28.2,28.2,0,0,1,4.736,6.054l-4.849,3.59a5.373,5.373,0,0,1-.576-4.969,8.035,8.035,0,0,0,.688-4.675Z" transform="translate(163.707 37.376)" fill="#ac8eff"/>
    <path id="Path_584" data-name="Path 584" d="M144.508,182.029c-10.7-1.6-22.2-3.384-23.407-3.82,3.784-3.879,3.429-5.037,6.46-10.263,2.875-4.964,1.851-2.569,2.743-6.612.318-1.438-.524-.189,4.291,4.114a25.5,25.5,0,0,0,9.867,5.295C144.133,174.278,146.149,176.962,144.508,182.029Z" transform="translate(171.233 220.696)" fill="#ac8eff"/>
    <path id="Path_585" data-name="Path 585" d="M143.079,168.523c.426,1.729-7.538,9.328-9.622,18.612-.757,3.367-1.829-12.59-3.1-16.736-9.881-32.292-14.965-35.47-12.881-36.019,12.186-3.206,9.832-.49,14.566-2.728a35.129,35.129,0,0,1,5.508-1.993c3.088,17.632.443,14.1,2.767,21.756C141.812,156.332,139.63,154.554,143.079,168.523Z" transform="translate(165.22 175.788)" fill="#ac8eff"/>
    <path id="Path_586" data-name="Path 586" d="M132.738,189.693c1.379.135.98-1.021,1.283,4.577C12.031,179.332,24.52,180.934,23.648,176.839,48.75,179.479,57.975,182.344,132.738,189.693Z" transform="translate(26.991 243.989)" fill="#eee"/>
    <path id="Path_587" data-name="Path 587" d="M110.744,178.574a13,13,0,0,1-.311,3.774c-.245.056-30.685,6.257-36.8,7.866-3.882,1.024-3.776,1.08-3.84.189-.225-3.127-.49-3.673.465-3.754C71.284,186.572,104.474,180.254,110.744,178.574Z" transform="translate(95.306 246.503)" fill="#eee"/>
    <path id="Path_588" data-name="Path 588" d="M69.046,174.252c9,1.528,42.67,7.92,42.722,8.74-1.469.287-37.846,7.837-39.641,7.739C67.2,172.038,67.2,173.931,69.046,174.252Z" transform="translate(92.855 239.944)" fill="#eee"/>
    <path id="Path_589" data-name="Path 589" d="M147.072,237.626c-9.889.233-48.521-4.653-59-6.083-54.7-7.481-51.041-5.618-51.881-8.265-11.618-36.545-13.469-45.021-19.2-68.558-4.526-18.612-10.616-12.979,50-8.081,58.62,4.736,57.609,6.1,58.86,8.635,2.067,4.185,2.5,8.385,8.985,33.1a33.122,33.122,0,0,1,1.714,6.054C138.317,204.734,147.058,237.572,147.072,237.626Z" transform="translate(13.49 193.275)" fill="#eee"/>
    <path id="Path_590" data-name="Path 590" d="M182.2,96.2a9.262,9.262,0,0,1,1.249,6.367c-.867,4.631-2.432,6.634-8.7,8.128a8.65,8.65,0,0,1-6.69-14.28C172.339,92.328,176.531,91.789,182.2,96.2Zm-2.966,7.624c2.432,1.007,3.414-4.305-5.192-4.068-2.03-.3-6.568,1.06-6.147,2.831.34,1.447,2.909.186,3.154.12,5.809-1.587,7.917,1.011,8.172,1.117Z" transform="translate(237.918 123.024)" fill="#fff"/>
    <path id="Path_591" data-name="Path 591" d="M167.646,93.166c3.446,1.959,3.382,3.639,3.894,6.857a8.968,8.968,0,0,1-4.572,8.228,7.741,7.741,0,0,1-9.061-.34c-1.641-1.065-1.638-1.1-.735-2.939,1.9-3.9,2.6-4.582,2.064-7.7-.6-3.482-.438-3.833.3-4.229A8.407,8.407,0,0,1,167.646,93.166Zm2.65,9.659c1.273-3.429-9.245-3.108-9.157.47.056,2.312,1.991-.309,5.679-.37C168.111,102.905,169.789,104.193,170.3,102.825Z" transform="translate(223.461 121.5)" fill="#fff"/>
    <path id="Path_592" data-name="Path 592" d="M292.493,181.706c-1.548,7.327.13,4.484-1.594,13.342-2.517,12.94-.245,28.288-2,33.1a38.624,38.624,0,0,1-7.347,12.957c-11.5,10.579-16.354,5.449-25.511.23-2.613-1.489-6.891-2.682-8.547-3.749-1.893-1.225-3.918-3.5-10.67-8.912-7.055-5.655-.49.558-10.214-8.27-.676-.615-.331-.269,2.055-1.648,2.2-1.276,2.9-3.994,4.531-7.518.98-2.111.62-1.663,1.66-8.985a17.318,17.318,0,0,0,.12-5.975,35.246,35.246,0,0,1,8.571,5.307c2.748,1.317,16.694,8,20.794,7.981a35.755,35.755,0,0,1,10.775,2.51c2.1-.044.852-2.128-.186-2.552-9.629-3.918-11.924-1.731-15.6-3.539-1.677-.825-6.25-2.961-8.133-3.693-1.043-.406.509-7.121.781-8.118a29.962,29.962,0,0,0,2.6-11.755c-.245-11.167,5.358-27.352,2.618-27.673-1.225-.147-1.048,1.153-1.92,5.689a151.888,151.888,0,0,0-3.159,19.53c-.039,11.052-1.489,5.615-3.9,21.012-1.523,0-1.636-1.638-11.157-6.186-1.587-.757-4.584-1.624-5.432-2.079-1.773-.953-2.089.078-3.264-.7-18.22-12-16.472-9.732-15.428-27.053.441-7.288,1.065-11.265-1.087-17.738a37.3,37.3,0,0,0-5.243-10.285c-4.548-6.206-7.467-7.555-9.206-7.976-.953-.233-1.5.818-1.959-.3a3.345,3.345,0,0,0-4.224-2.449,3.083,3.083,0,0,0-4.54-.884c-30.82,17.062-15.13,40.3-23.049,47.446-1.979,1.785-19,16.7-21.218,16.254-5.914-1.18-10.229,12.274-4.048,18.889,4.408,4.717,5.694,7.347,11.738,8.61,7.648,1.6,11.113-5.924,11.052-8.473-.088-3.754,11.155-19.528,14.272-23.583,7.45-9.7,5.388-4.538,8.175-19.888a18.676,18.676,0,0,0,.306-2.356,21.848,21.848,0,0,1,1.224-3.972c.1-.416,7.557-8.623,8.659-9.879a7.153,7.153,0,0,0,1.744,3.86c-.145-.042-.331.681-.431.566a2.831,2.831,0,0,0-4.055.14c-.571.546-.61,1.959-.514,4.447.451,11.561-.365,9.406,2.233,17.189.735,2.2-.49,4.991,2.062,9.7a35.908,35.908,0,0,0,4.991,5.069c2.4,2.449,4.822,7.751,13.993,17.27,2.694,2.8,8.361,7.388,9.255,8.444.549.647-.216,3.024,2.089,5.652,5.633,6.428,8.05,6.228,17.569,14.961,5.206,4.773,7.69,3.541,16.266,9.306.333.225,8.985,4.3,14.089,3.651a103.126,103.126,0,0,1,.022,10.489c-.042,3.641,1.638,3.105-10.023,1.523-40.652-5.517-33.119-4.068-39.183-5.194-41.01-7.628-48.139-7.837-62.137-10.33a301.592,301.592,0,0,0,8.429-43.647,2.731,2.731,0,0,0-.9-2.356c-.343-.3-1.193-.145-1.293,1.036a55.544,55.544,0,0,1-5.689,19.278C152.1,236,148.072,231.013,136.91,227.178c-5.767-1.981-11.931-9.935-12.139-15.6-.887-24.139,10.93-15.014,31.665-66.7,7.315-18.235,22.7-22.3,42.293-25.552-.122.8-.2,1.494-.335,2.17-.637,3.125,2.094,6.017,5.777,8.632a36.512,36.512,0,0,0,16.075,5.686c12.85,1.648,19.391,1.2,25.469-.284,6.24-1.526,6.546-5.363,6.972-6.585,1.69-4.849-.9-4.07,6.154-.874C289.723,142.085,299.487,148.6,292.493,181.706Z" transform="translate(178.149 160.661)" fill="#e4fd6f"/>
    <path id="Path_593" data-name="Path 593" d="M219.139,100.726c.8,1.609-2.025,1.9-.436,5.535.561,1.283.456,2.449-1.239,3.673-2.351,1.685-.34,3.7-.23,3.935.874,1.9.1,2.087-1.308,3.127-3.355,2.486,1.714,3.825-2.17,6.078-1.883,1.09-.928,1.244-1.905,1.435-4.046.791-3.6,1.758-5.143,1.577a.98.98,0,0,1-.7-1.648,2.133,2.133,0,0,0,.316-2.336c-1.766-4.305,3.847-4.849.14-8.571-2.131-2.14.289-2.6.125-4.457-.127-1.418-2.493-2.011-1.058-6.73a12.413,12.413,0,0,1,1.6-3.984c1.239-1.278-.039-3.35-1.518-2.055-2.05,1.8-2.087.375-3.492,2.586a4.337,4.337,0,0,1-5.287,1.5c-1.832-.735-1.281.409-2.336,2.06-.534.833-3.955.309-4.653-.367-2.478-2.417-2.2,2.241-5.268,1.678-1.469-.272-5.131-3.154-5.613-2.109-1,2.175-5.184,2.307-6.877.1-1.487-1.959-1.932-2.65-3.886-1.344a2.4,2.4,0,0,1-3.549-.154c-3.059-2.985-3.46-2.846-4.384-.98-.49.98-1.751-.024-2.312-.955a1.873,1.873,0,0,1,.735-2.792c1.57-.98,2.255-1.344,1.959-2.167-.561-1.548-2.15-3.294.3-4.31,1.8-.735,4.131.382,3.524-2.765-.181-.943-.9-2.023.091-2.14,3.84-.46,1.469-.02,3.98,0,2.855.017,1.251-3.027,2.251-3.654,2.371-1.484,2.917-1.007,5.838.174,2.694,1.085,1.124-2.082,4.584-3.468,1.531-.615,2.473.049,3.73,1.119,2.251,1.922,2.449-.181,4.668-1.249.953-.46,1.224.039,2.29,1.714,1.658,2.615,3.343-.446,4.085-.833,1.714-.9,3.2.918,4.379,2.449,1.5,1.959,2.361.171,4.18-.321s3.58,2.015,3.7,3.272c.145,1.489,1.984.877,2.449.735,1.109-.372,4,.176,4.433,1.763a4.163,4.163,0,0,1-.718,3.455c-.8,1.991,1.129,1.073,1.7,2.87,1.244,3.918-.815,2.412-.637,4.851C215.591,98.292,217.721,97.876,219.139,100.726Z" transform="translate(225.797 99.572)" fill="#fff59e"/>
    <path id="Path_594" data-name="Path 594" d="M216.321,100.149c8.6,3.059-1.374,27.048-8.606,20.453-1.7-1.545-3.9-1.991-3.94-.152-.076,3.289-1.322,3.9-5.094,23.877-1.224,6.465-1.3,6.23-2.4,7.1a14.719,14.719,0,0,1-7.3,1.959c-6.367-.98-14.64.122-20.451-2.858-4.856-2.488-4.653-.11-2.694-7.288,10.9,5.388,18.343,4.695,27.707-2.912,4.9-3.982,2.9-6.757,1.653-5.253-13.939,16.829-32.551,6.311-34.057-1.247a76.484,76.484,0,0,1-2.5-11.583c-1.827-13.672-2.9-14.4-2.2-16.981a11.422,11.422,0,0,0,10.259,1.79,7.156,7.156,0,0,0,4.281,6.25,5.53,5.53,0,0,0,4.038.8c.818-.181,3.918.367,3.318-1.974-.527-2.05-3.8.98-7.712-2.246-1.053-.867-1.959-3.262-.627-4.55,2.939-2.846,5.16-3.453,6.064-5.454.443-.98.933-2.375-.11-2.576-1.384-.269-.857.245-2.05,1.629-.176-2.353,1.168-4.555,3.289-3.583,1.342.612.862,1.959.7,3.443-.894,7.949,7.347,13.161,14.2,10.886,7.308-2.427,5.772-6.95,8.968-7.864a12.774,12.774,0,0,1,6.027-.191C210.468,101.766,213.159,99.025,216.321,100.149ZM193.83,122.058c2.958-.245-1-11.2-3.6-7.888-.842,1.075-.245,1.714.407,2.53-2.922.512-2.907.754-5.559,1.342-3.583.791-15.428.664-18.857-.671.245-2.5-1.447-2.243-2.226-1.362-1.315,1.489-2.427,5.2-.647,5.292,2.121.113.326-3.46,2.552.541a20.755,20.755,0,0,1,2.611,8.444c1.381,7.572,14.125,8.816,20.816-5.035C193.683,116.222,191.5,122.256,193.83,122.058Z" transform="translate(223.795 125.887)" fill="#ffceb6"/>
    <path id="Path_595" data-name="Path 595" d="M207.627,122.1a13.436,13.436,0,0,1-.884,7.014c-2.111,6.024,2,14.826-19.388,14.713-1.318,0-6.992-.833-12.2-1.619a36.082,36.082,0,0,1-10.435-2.98c-2.882-1.94-6.233-2.907-8.236-6.22-1.445-2.39-.316-4.371.372-7.173,1.2-4.851-1.714-9.578,3.539-11.914,1.79-.8,1.913-.825,3.448.808.455.49.159,1.9-.3,4.459-1.063-.6-.35-1.469-.98-2.126-1.129-1.176-2.449.791-1.856,2.226a8.647,8.647,0,0,0,6.881,5.187c2.378.3,2.613,2.816,17.863,3.735,17.953,1.082,16.9-4.163,16.094-6.962a5.76,5.76,0,0,1,.061-3.392c.174-.36.541-.551,1.384-.382C203.662,117.605,207.333,119.327,207.627,122.1Z" transform="translate(223.151 152.311)" fill="#e4fd6f"/>
    <path id="Path_596" data-name="Path 596" d="M204.263,101.007a1.629,1.629,0,0,1,.436,2.094,12.4,12.4,0,0,0-1.4,6.3,6.144,6.144,0,0,0-.409,3.051c-6.771.49-5.118.7-5.184-.617a13.684,13.684,0,0,0-1.366-6.548,8.5,8.5,0,0,0-4.807-3.869c-5.779-1.734-9.828-1.58-14.74,4.915a4.682,4.682,0,0,0-5.1-.279,16.53,16.53,0,0,0-.85-2.743c-1.942-3.764-6.517-6.355-13.053-4.775a18.452,18.452,0,0,1,1.224-6.367,26.448,26.448,0,0,1,3.184-5.846c1.66,1.526,3.673,3.46,6.436,1.67,1.134-.735,1.136,1.244,2.772,2.251,5.388,3.316,7.364-1.54,8.892-.35a6.766,6.766,0,0,0,8.268.115c3.4.6,5.833,1.714,7.313-1.183.965-1.886,4.19,1.2,6.872-2.278a.708.708,0,0,1,.673-.274c.424.22-.3,1.533-.583,3.012-.86,4.57,2.047,5.792.933,7.251C202.367,98.389,202.837,99.581,204.263,101.007Z" transform="translate(226.048 113.114)" fill="#ffceb6"/>
    <path id="Path_597" data-name="Path 597" d="M173.067,176.621c5.189,6.928,20.194,12.955,19.988,15.257-.534,5.988-1.092,5.8-.992,8.018.081,1.785-3.428,10.79-4.866,9.428-26.24-24.778-18.245-20.309-25.586-28.212-2.647-2.848-6.879-4.626-6.416-11.314.137-2.008-2.015-6.122-2.29-8.27-.3-2.366-.49-8.775-.735-12.58-.1-1.629.191-1.869.877-2.06.913-.245,1.516.512,1.905,1.521,1.075,2.8.71,9.061,2.015,13.021,1.109,3.372,2.637,2.361,2.449,3.975-.282,2.4-1.224,10.342,1.127,9.747.718-.184.882-.522.6-2-.573-3.051.2-5.547,1.107-11.2.622-3.889-6.029-12.024-5.454-14.53.911-3.98,7.249,9.458,8.571,12.169.676,1.384,1.82.747,1.734-.49-.034-.49-2.1-5.322-2.4-5.961a53.733,53.733,0,0,0-5.473-7.883c-1.021-1.32-1.494-.284-2.471-2.069-1.384-2.525-1.308-2.662.149-3.9,4.222,4.966,5.664,6.644,7,8.39,1.886,2.476,2.647,5.417,4.256,5.552.465-5.456-10.379-14.8-9.955-16.077.735-2.2-.269-2.762,2.412-.465,7.418,6.367,4.234,4.962,8.454,10.905a1.959,1.959,0,0,0,.4-2.184,29.811,29.811,0,0,0-3.813-7.1c-2.341-2.346-1.337-3.732-3.945-6.651-.874-.98-4.695-4.09-5.273-6.262-.135-.5-.024-2.287,2.241-.9,5.265,3.23,12.507,14.059,12.979,22.839.333,6.122-1.242,13.557-1.249,24.169A15.017,15.017,0,0,0,173.067,176.621Zm-10.614-38.306-.029-.022c-.022.118-.027.113.029.022Z" transform="translate(217.89 167.542)" fill="#ffceb6"/>
    <path id="Path_598" data-name="Path 598" d="M157.559,93.581c.918,5.013,1.082,3.764-1.261,7.7A7.756,7.756,0,0,1,157.559,93.581Z" transform="translate(222.21 123.707)" fill="#fff"/>
    <path id="Path_599" data-name="Path 599" d="M153.986,126.6c.735-1.264,3.779,2.882,3.984,3.6C156.964,129.947,153.526,127.395,153.986,126.6Z" transform="translate(219.506 171.085)" fill="#d4f2e2"/>
    <path id="Path_600" data-name="Path 600" d="M186.2,137.879c.882-.671,2.62-.735,2.515.262a2.251,2.251,0,0,1-.642,1.6c-7.952,7.122-5.828,6.433-10.107,10.484-7.009,6.639-2.025,16.053-8.517,24.595-24.979,32.852-19.347,32.507-22.457,34.067-5.018,2.53-8.694-.531-12.661-4.553-3.353-3.4-5.287-7.246-3.725-11.8a5.388,5.388,0,0,1,1.288-1.756c1.991-1.834,18.668-14.552,20.032-15.8,9.191-8.432,8.253-4.717,8.767-20.248.321-9.688.23-10.653,3.549-17.106a31.942,31.942,0,0,1,8.113-10.129c3.044-2.5,7.117-5.373,8.326-5.312.416.022,1.337.49,1,1.166a7.5,7.5,0,0,1-1.844,1.761c-7.136,5.417-7.677,5.258-9.509,8.424-2.956,5.1-7.888,9.566-5.738,10.391,1.56.6,7.4-10.53,10.922-13.183a70.237,70.237,0,0,0,7.624-6.139c1.073-1.166,1.7-.891,1.979-.735a2.065,2.065,0,0,1,.82,1.393c.446,3.147-6.935,3.458-16.628,19.332-.617,1.011-.174,2.062.722,1.469,2.106-1.381,6.722-10.53,15.69-16.856.326-.23,1.136-1.1,1.224-.757a13,13,0,0,0,1.224,2.471c.2.446-.666,1.068-1.207,1.082a3.274,3.274,0,0,0-3.184,2.772c-.088,1.442-4.445,5.478-10.734,13.18-1.029,1.259.7,2.121,1.469,1.335C180.114,143.595,178.8,143.5,186.2,137.879Z" transform="translate(184.726 164.949)" fill="#ffceb6"/>
    <path id="Path_601" data-name="Path 601" d="M154.862,127.474c.465.509.98.735.37,1.055a11.12,11.12,0,0,0-2.344.867C152.084,127.949,153.444,125.924,154.862,127.474Z" transform="translate(217.587 171.889)" fill="#ffceb6"/>
    <path id="Path_602" data-name="Path 602" d="M239.86,190.376c14.042-5.917,13.285-15.793,10.665,4.1-1.305,9.9-.451,6.436-.355,17.3.044,5.077-4.1,16.986-9.583,17.255-2.2.108-3.4,1.5-7.543-.179a18.333,18.333,0,0,1-9.588-8.816c-.622-1.254.411-1.1-1.469-7.68-1.5-5.231.2-8.287-2.6-14.429-3.326-7.32-.771-13.349-2.9-13.469-1.043-.059-1.1,2.04-1.043,2.826.384,5.75-.328,4.3,1.761,10.966.845,2.694-6.842,14.49-8.194,16.741-2.138,3.563-1.171,4.273-4,8.456-1.156,1.714-.551,3.409-3,3.223a50.381,50.381,0,0,1-18.352-3.117c-2.055-.867-6.1,1.063,8.375,4.653a49.877,49.877,0,0,0,11.963.671c2.731-.509,4.264,2.481,1.893,5.569-2.126,2.77,1.34,7.868.874,13.788-.306,3.9,2.694,4.9,6.367,23.755-2.05.179-11.924,3.215-13.893,3.85-4.357,1.411-3.154,2.2-7.325,1.893a31.548,31.548,0,0,0-9.6,1.91c-1.433.478-4.709-16.881-15.776-22.7a65.7,65.7,0,0,0-13.236-6.086c-4.408-1.141-7.553-4.626-14-6.367-2.939-.791-3.054-.47-3.5-1.313-3.382-6.367-8.816-8.253-10.286-11.057a3.51,3.51,0,0,0-1.594-1.543,56.947,56.947,0,0,1,12.345-14.3c.377-.311.531-.49,3.042,1.2.842.566,1.959-.629,1.359-1.308-2.716-3.1-7.068-5.143-1.369-8.285a.49.49,0,0,1,.722.171,22.774,22.774,0,0,0,6.556,5.432c1.445,1.073,2.273-.426,1.82-.98-3.274-3.918-7.315-4.229-8.02-9.673-.145-1.1.032-1.856,3.82-1.834a19.718,19.718,0,0,1,3.673,1.469c1.288.431,2.04-1.224.762-2.015-2.2-1.344-2.637-1.139-2.993-4.163-.923-7.864.781-9.076.387-15.247a116.522,116.522,0,0,1,.681-24.472c1.2-7.043,6.916-19.038,5.282-19.783-.98-.448-1.469.35-2.385,2.956-4.163,11.7-3.945,13.028-5.126,11.845-2.383-2.39-1.158-3.218-.11-7.1a15.9,15.9,0,0,0,.666-3.918c-1.318-2.1-1.535.245-3.725,5.765a14.151,14.151,0,0,0-3.279-2.885c-4.048-2.638-8.175-7.766-20.64-18.083-.793-.656-16.9-17.855-17.6-18.612-4.3-4.616-6.957-6.651-8.721-12.641C83.8,69.369,82.356,73.939,80.554,65.034c-.571-2.806-1.359-3.975-5.493-14.27a53.949,53.949,0,0,0-2.65-8.236c-.382-.833-.683-1.944-.436-1.523a12.979,12.979,0,0,0,14.162-1.575c7.423-6.705,5.544-1.824,12.365-11.564,2.236,5.659.965,8.446,2.811,13.959a73.854,73.854,0,0,1,4.163,13.393c.784,4.932,3.529,7.768,5.348,13.315,1.325,4.031,2.38,4.543,1.393,6-4.32,6.367-3.262,4.518-6.029,7.126-1.753,1.651-.529,2.647.331,2.3,3.154-1.283,8.966-8.745,8.081-11.794-.429-1.5,2.611-.245,2.62,2.15.015,3.639-1.518,6.245-1.469,8.16.034,1.389-4.092,4.771-2.268,5.975a1.259,1.259,0,0,0,1.54-.245c.916-1.342,1.859-2.672,2.635-4.095.556-1.021.191-3.1.918-3.323.791-.245,1.447.9,1.509,1.785a24,24,0,0,1-.7,8.113.98.98,0,0,0,1.839.654c.544-.928.762-1.7,1.264-2.393,10.469,8.106,5.162,7.837,29.537,24.529,1,.681-1.665,9.083.671,8.73,2.079-.316.384-7.1,2.787-9.641a3.514,3.514,0,0,1,5.143.757c1.112,1.384,1.371,1.673.433,5.233-.348,1.322.1,1.94.779.98,1.224-1.746,1.193-2.449,2.466-2.432,1.8.015,2.505.61,5.789,3.012,1.433,1.048,5.828,2.074,7.361,3.171-19.276,8.787-8.326,16.31-3.534,21.492-1.367,1.019-3.539,1.82-6,3.328-6.967,4.276-5.505,4.842,5.478,34.934,8.632,23.647,5.593,9.117,6.566,20.76.358,4.249,2.922-3.335-6.482,11.809-3.313,5.336-3.612,3.7-5.738,9.406-6.169,16.572-8.488,22.04-8.241,23.591a.95.95,0,0,0,1.825.162,51.857,51.857,0,0,1,2.361-6.717c8.344-20.571,4.788-15.627,8.326-20.738,5.52-7.944,11.383-17.431,13.863-19.628,32.02-28.346,45.117-33.771,41.83-42.46a5.211,5.211,0,0,0,4.264,1.553c1.437,11.713,3.206,8.887,2.412,15.156-1.051,8.309-6.7,6.179-7.308,12.6A42.668,42.668,0,0,0,226.873,200c1.318,5.877-2.711,12.561.13,12.137.811-.122.642-.835,1.163-3.306.735-3.519,1.58-5.052.916-8.295a31.679,31.679,0,0,1-.26-8.723C230.424,193.354,237.278,191.463,239.86,190.376Z" transform="translate(99.595 28.808)" fill="#ac8eff"/>
    <path id="Path_603" data-name="Path 603" d="M153.915,71.512c3.382,1.8,4.957,3.8,4.7,6.857-1.007,11.875-7.592,23.265-5.924,44.409a.862.862,0,0,1-.446.98c-.049.029-3.093,2-2.51,1.418l-.051-.029.015.044c-9.377,3.362-7.979,5.713-6-8.547,1-7.185,1-7.237.661-8.081-4.695-11.953,1.413-21.33-5.841-16.033-.49.35-.245.877-.073,1.3.262.666.962.377,1.678.211v2.5a2.486,2.486,0,0,1-3.147-1.34c-1.986-4.795-1.834-5.273-.291-6.255,2-1.273-1.337-3.955-.034-6.982a35,35,0,0,0,2.939-4.868c.862-2.694,3.049-3.6,3.629-3.414,1.869.6,2.182-2.319,3.451-2.8a11.939,11.939,0,0,1,7.251.627Z" transform="translate(192.465 90.447)" fill="#e5bba6"/>
    <path id="Path_604" data-name="Path 604" d="M180.5,60.226c2.106,1.528,2.486,5.086.272,6.193-4.3,2.145.98,3.539-3.108,6.651-2.743,2.084.245,3.563-1.575,6.09a4.687,4.687,0,0,0-7.624-3.118,4.281,4.281,0,0,0-2.1-1.535c-1.619-.749-.245-2.109-.225-4.119.051-3.443-2.642-4.232-4-5.143-.918-.61-.779-1.959-.448-3.213.282-1.075.539-2.062-1.413-3.673-5.312-4.359-.749-8.779-.627-11.755a.6.6,0,0,0-.71-.612c-1.91.36-2.806,4.08-3.5,6.382-4.185-1.024-4.474,2.831-7.577,2.76-4.046-.1-4.472-2.39-6.225-.13-1.242,1.6-1.729,3.122-3.813,3.5-2.5.456-3.144.918-4.636.14-3.26-1.714-2.762,1.33-7.89,2.15-3.429.549-4.384-1.827-7.508.647a1.254,1.254,0,0,0-.465,1.629c.708,1.117,2.03-.9,3.735-.245-.436.767-.894,1.484-1.273,2.241-4.423,8.816,2.251,18.4-.593,18.063-1.9-.223-3.076-2.6-3.282-4.31-.478-4-3.992-2.819-3.208-6.7.47-2.334.98-2.76.162-3.994-3.61-5.505.47-3.113.857-9.842.051-.862-.953-2.449,1.193-3.984,2.064-1.469,2.515-1.029,2.939-2.557a4.479,4.479,0,0,1,2.9-4.141c5.451-2.694,7.016-8.618,20.2-11.792a29.923,29.923,0,0,1,16.408-.3,52.65,52.65,0,0,1,5.584,2.586,3.375,3.375,0,0,1,1.244,3.429c-.328.847.34,1.325,1.224,1.117.808-.189,1.829-.245,2.628-.47,3.406-.965,2.351,2.694,6.054,1.959,1.469-.294,2.9.272,2.831,2.628-.088,3.027,1.619,3.142,2.694,4.1C184.027,54.819,175.671,56.721,180.5,60.226Zm-56.85-4.653-.015-.024.024.024Z" transform="translate(157.217 38.427)" fill="#585858"/>
    <path id="Path_605" data-name="Path 605" d="M181.355,44.84a4.751,4.751,0,0,1-1.864,4.878c-2.28,1.278-1.509,3.162-3.889,4.942-.384.289-1.611,1.051-2.121-.137a14.255,14.255,0,0,0-6.59-7.442,27.21,27.21,0,0,0-14.939-2.667c-4.856.443-9.732,2.8-14.032,3.429a18.367,18.367,0,0,0-9.673,4.031c-2.449,1.714-2.709,3.166-4.126,4.2-.962.705-2.273.36-2.471-1.8-.213-2.285-2.241-1.048-4.2-2.476-1.658-1.207-.49-2.131,1.2-4.109,2.1-2.449-.365-5.62-4.259-4.827-2.062.421-3.94.735-4.425-1.107-.634-2.412.313-3,1.251-5.108.811-1.829,7.966.823,6.33-2.615a13.89,13.89,0,0,0-2.4-2.753c-2.236-2.679,1.193-5.809,5.143-5.5,1.829.144,3.85,2.079,4.7,2.542a1.293,1.293,0,0,0,1.989-1.183,14.743,14.743,0,0,0-.2-1.886c-.659-3.673,3.847-5.657,7.758-.637,1.94,2.488,3.646,1.107,3.333-1.092-.264-1.854,1.129-5.184,3.7-5.268,5.983-.193,5,6.426,6.84,6.384,2.978-.069-.774-4.271,5.679-7.146a6.539,6.539,0,0,1,6.174.958c.551,1.254.1,1.959-.6,5.211-.206.958.735,2.118,1.5,1.455.23-.2.666-.245.8-.49,1.386-2.52,8.17-.144,8.855.042a2.743,2.743,0,0,1,2.062,2.9,13.47,13.47,0,0,1-1.139,4.32c-.583,1.122.326,2.62,1.384,2.216,2.175-.825,4.773.759,6.47,2.349,1.019.953.451,1.944-1.149,3.97C176.129,43.351,180.635,42.636,181.355,44.84Z" transform="translate(154.832 13.224)" fill="#585858"/>
    <path id="Path_606" data-name="Path 606" d="M141.049,67.368c1.528,1.869,2.4,4.3,1.535,5.775a43.484,43.484,0,0,1-3.485,4.472c-1.589,2.2.517,4.19,1.469,5.794s1.073,2.878-2.532,5.8c1.56-4.386-1.905-5.841-3.022-7.748a4,4,0,0,1,1.658-5.309c4.119-3.13-.98-6.634-1.371-10.849a2.537,2.537,0,0,1,.872-2.557c.671-.4,1.653-.272,2.466-1.633,3.759-6.284,2.449-4.793,3.213-5.831a4.263,4.263,0,0,1,.421,4.548C141.145,62.34,138.975,64.836,141.049,67.368Z" transform="translate(191.009 68.342)" fill="#585858"/>
    <path id="Path_607" data-name="Path 607" d="M169.412,65.942a18.467,18.467,0,0,1-1.555,10.477c-2.706,4.614-6.367,3.066-6.73,4.859-1.452,7.131-4.624,9.693-7.249,12.862-3.739,4.516-5.493,7.134-8.155,8.535-6.612,3.473-9.436.463-15.69-3.837-12.311-8.466-11.561-11.51-11.819-20.865-.2-7.479-1.594-6.776-2.868-13.814A18.318,18.318,0,0,1,116.99,52.7c1.2-1.775.867-.962,5.388-1.9,3.458-.715,2.858-2.922,4.523-1.864a8.3,8.3,0,0,0,6.034.115c3.2-.6,4.44-3.984,5.045-4.185s5.033,2.635,8.5-.838c1.646-1.653,2.657-1.1,3.95-1.269a7.673,7.673,0,0,0,3.5,5.348c2.175,1.81-2.106,4.457,2.084,6.933,2.366,1.4,3.037,1.734,2.566,3.429.446,3.828,3.353,6.938,5.809,5.909A4.521,4.521,0,0,1,169.412,65.942Z" transform="translate(162.527 50.241)" fill="#e5bba6"/>
    <path id="Path_608" data-name="Path 608" d="M163.511,81.458c1,1.484-1.283,1.6-2.26,5.143-.245.916-.847.441-2.758,2.265s-6.776,2.733-3.813,5.373c2.449,2.172,8.73,9.509,4.976,13.29-9.585,9.651-31.836,26.365-36.734,30.969-6.739,6.338-4.653,5.579-6.1,6.367,0-15.316,7.653-20.718,21.808-45.587,3.984-7,4.08-7.91,6.179-11.388,10.9-18.066-1.026-14.145,2.907-20.042a36.942,36.942,0,0,1,15.791,13.609Z" transform="translate(165.088 86.477)" fill="#ac8eff"/>
    <path id="Path_609" data-name="Path 609" d="M132.943,80.069c6.612-4.124,5.287-3.884,6.541-2.314-1.269.958-2.694,1.734-2.4,4.08a16.942,16.942,0,0,0,1.455,5.091,36.244,36.244,0,0,0-5.593-6.857Z" transform="translate(188.572 99.313)" fill="#b2b2b2"/>
    <path id="Path_610" data-name="Path 610" d="M137.917,60.933l-1.369,2.312a.282.282,0,0,1-.093.093,25.773,25.773,0,0,1-13.288,2.912.475.475,0,0,1-.316-.13,8.8,8.8,0,0,1-1.063-1.178.245.245,0,0,1,.186-.384c1.932-.162,11.248-.84,15.732-3.825a.149.149,0,0,1,.211.2Z" transform="translate(172.128 76.198)" fill="#fff"/>
    <path id="Path_611" data-name="Path 611" d="M139.815,71.071c5.588-2.682,3.639-5.317,2.4,8.194-.879,9.551,2.694,1.425-4.051,14.015-.9,1.682-1.428,1.58-3.482,2.319-7.241,2.606-17.015-.715-16.961-10.244a40.711,40.711,0,0,1,.593-6.882c1.749.691,1.455-.225.771,4.3-.4,2.672,1.959,2.611,2.449-.26,2.907-17.632,1.384-15.036,4.092-13.068C131.7,73.862,134.151,73.789,139.815,71.071Z" transform="translate(166.252 86.784)" fill="#e5bba6"/>
    <path id="Path_612" data-name="Path 612" d="M131.1,63.58c-1.937,3.024-3.8,5.155-6.235,3.534-.98-.651-1.714-.774-.039-2.275a10.761,10.761,0,0,1,6.083-1.57.2.2,0,0,1,.191.311Z" transform="translate(175.147 79.886)" fill="#ffaeb4"/>
    <path id="Path_613" data-name="Path 613" d="M128.139,83.694c9.71,1.411,10.484-7.09.037,11.8-1.714,3.091-5.779,8.265-7.347,11.657a24.662,24.662,0,0,1-2.39,4.06,150.956,150.956,0,0,1-.59-24.71,15.066,15.066,0,0,0,7.4,2.241c.98.069,1.33-.375,1.609-1.513-10.325-2.285-9.061-4.315-9.061-9.041a13.763,13.763,0,0,0,10.347,5.5Z" transform="translate(166.022 101.449)" fill="#e4fd6f"/>
    <path id="Path_614" data-name="Path 614" d="M186.473,213.013c1.344,8.434,6.715,19.636.8,26.578-1.905,2.236-2.5,7.863-8.366,10.349-5.508,2.331-1.5-.039-7.423,3.017-3.673,1.9-3,.49-3.406-1.829-2.829-16.05-8.992-17.248-10.4-23.39a14.326,14.326,0,0,0-5.775-9.208c-7.807-4.484-8.664-4.876-9.818-5.032-1.007-.14-1.011-.2-2.8-6.088-1.7-5.608-.2-7.146-1.553-13.773-1.21-5.929-7.036-17.258-5.659-37.545.362-5.363.884-5.517-.551-5.877-.906-.22-1.256.593-1.354,1.523-3.487,32.6,5.51,32.081,6.081,51.766a31.7,31.7,0,0,0,1.668,9.061c.262.791.453.921-2.694,2.4-1.188.556-1.352,1.058-3.673,4.386-6.164-2.184-11.9,5.057-11.02,11.2a158.242,158.242,0,0,1-30.237,4.18c-.938.064-1.538-1.905-1.714-2.782-1.1-5.738-3.377-6.59-2.939-10.18.473-3.962-1.535-7.562-2.091-11.863-.752-5.824,1.393-8.836-1.609-14.339-4.028-7.379,1.109-9.6-1.864-18.428-1.141-3.384-1.567-13.579-1.959-15.644-.683-3.617,2.679-5.1,6.338-5.633a16.937,16.937,0,0,0,7.959-2.633c5.968-1.979,6.578-7.641,7.9-8.846,3.375-3.086,9.1-7.648,9.6-12.34.49-4.53,4.291-6.69,3.994-13.3a5.77,5.77,0,0,0-5.633-5.464c-.49.054-.659-.306-.762-.735-.372-1.587-.191-1.824,1.452-1.695,6.424.507,4.984,3.215,10.961,7.543a15.2,15.2,0,0,1,5.339,8.17c.245,2.255-1.771.676-4.031,13.288a74.317,74.317,0,0,1-4.249,7.1c-.36.622-1.864,4.337-2.917,6.637a18.441,18.441,0,0,1-4.856,7.457,58.923,58.923,0,0,1-8.37,7.261c-.8.507-3.215,2.743-5.814,4.428-1.68,1.09-1.249-.9-7.484-12.125-1.817-3.269-6.289-2.682-5.809.637.059.4-.144.948.49,1.058.845.149,1.256-.517,1.5-1.34,4.861.042,5.454,17.125,12.585,14.1,3.184-1.347,11.532-9.458,13.746-11.361,7.795-6.7,4.119-9.257,12.061-20.326a20.441,20.441,0,0,0,2.75-8.858c.688-3.879,3.184-4.976,2.983-8.395a39.057,39.057,0,0,1,10.616,4.739c4.163,2.642,5.73,2,10.655,4.425,8.789,4.337,13.866,5.067,20.081,22.1,2.694,7.418,1.565,4.163,5.723,14.243a164.8,164.8,0,0,1,9.735,28.114C185.417,202.778,184.839,202.769,186.473,213.013Z" transform="translate(108.187 148.328)" fill="#6b807d"/>
    <path id="Path_615" data-name="Path 615" d="M132.063,66.534a12.825,12.825,0,0,1-.169,4.915,14.745,14.745,0,0,0-4.582,7.063c-.98,4.687-2.02,47.585.147,51.854.465.913-.2,1.141-1.183,4.075-.7,2.079-.664,2.694-1.425,4.575A298.67,298.67,0,0,1,112,103.782c-1.594-5.4-2.581-6.58-.617-8.309,6.122-5.388,9.935-3.429,9.061-7.129-.823-3.463-10.934-8.023-5.809-13.687C118.52,70.369,125.6,67.621,132.063,66.534Z" transform="translate(155.28 84.58)" fill="#ac8eff"/>
    <path id="Path_616" data-name="Path 616" d="M138.283,187.425c4.834,20.8-8.015,15.352-12.245,17.243-3.343,1.494-5.75,4.131-10.2,1.384-2.787-1.714-2.968-2.924-4.553-4.974a17.357,17.357,0,0,1,4.817-.12c.671.037,2.1,1.354,3.318,1.959,3.553,1.8,4.381-3.906,3.184-7.753a113.359,113.359,0,0,1-6.9-13.469c-7.241-15.487-4.09-9.884-11.674-17.074-1.283-1.224-4.366-.767-4.675.936-.424,2.336-1.565,2.091-2.733,2.04-.762-3.157,1.986-9.416,6.776-7.917,6.992,2.2,2.89-13.207,19.807-1.224,3.318,2.351,4.408,5.708,5.41,9.72a11.655,11.655,0,0,0,3.162,4.944A46.7,46.7,0,0,1,138.283,187.425Z" transform="translate(135.055 210.667)" fill="#6b807d"/>
    <path id="Path_617" data-name="Path 617" d="M155.085,167.834c10.761,23.821,13.063,24.58,10.856,24.979-6.414,1.163-36.259-1.837-60-3.874a25.26,25.26,0,0,1-12.734-2.922c-8.98-4.506-11.165-6.828-17.743-1.42-.882.735-.12,1.876,1.024,1.619,2.486-.561,1.5-.389,2.939-.225.671.076.735.367.867,1.94.152,1.8-.833,1.971-6.164,2.177-2.121.083-2.449-2.6-2.863-3.72-1.9-5,2.816-6.367,8.486-10.09-.735-1.082-1-1.224-1.869-1.007a18.381,18.381,0,0,0-5.008,2.14c-5.613,3.48-3.3,5.855-4.812,2.329-1.611-3.766,5.344-5.388,7.939-8.625-2.03-2.2-6.355,1.629-8.961,3.558-1.344-6.184-1.959-2.927,5.116-8.152.98-.735.789-1.78-.078-1.55-7.259,1.922-6.015,4.653-7.469-.536,15.022-9.152,12.321-8.175,21.646-2.385,8.571,5.319,10.44,7.139,13.072,7.668,3.056.612,25.4-1.2,41.468-4.616,9.034-1.925,9.13-2.4,10.085-1.457C151.686,164.457,153.724,164.832,155.085,167.834Z" transform="translate(88.248 216.181)" fill="#ffceb6"/>
    <path id="Path_618" data-name="Path 618" d="M98.1,100.418c2.307,5.189-.49,13.584-.713,14.8a5.287,5.287,0,0,1-2.694,4.56c-2.263,1.66-6.953.8-7.151-1.207a21.292,21.292,0,0,1-.358-6.485c.355-2.025-.522-3.539-.4-6.122C87.179,97.291,95.278,94.073,98.1,100.418Z" transform="translate(120.536 128.768)" fill="#ffceb6"/>
    <path id="Path_619" data-name="Path 619" d="M128.92,95.423c12.1,6.215,10.185,16.511,11.206,29.191-6.424-2.532-13.567,6.029-11.25,14.277.4,1.43-.541-.519.059,9.112,0,.061,3.357,11.226,1.641,13.783-1.942,2.9,1.842,4.163-.382,8.206-1.308,2.371,0,2.679-.365,6.749-.213,2.336-2.5.735-2.652,3.889a20.236,20.236,0,0,1-.512,3.529,1.469,1.469,0,0,1-.911,1.033c-2.06,1.122-1.06,2.052-2.652,4.807-1.714,2.963-6.054.22-7.428,4.408A2.939,2.939,0,0,1,111.339,196a4.242,4.242,0,0,0-4.984.578c-1.117.806-1.5.676-5.488,0-2.155-.362-1.386,2.481-5.143,1.878-2.566-.414-1.308-3.115-4.535-2.855-3.49.282-6.3-.051-6.086-3.4a4.371,4.371,0,0,0-1.538-4.163,4.408,4.408,0,0,1-1.1-3.732c.3-2.694-1.011-3.164-2.522-5.429-1.293-1.94,1.318-4.276-1.264-7.347-2.028-2.412.764-3.953-1.371-6.526a2.939,2.939,0,0,1,.8-4.369c2.836-1.714,4.134,1.993,6.389-1.374.98-1.469,2.625.186,2.772.389,2.508,3.429,9.5,4.626,15.007-2.564.882-1.149,1.763-2.709,3.793-2.111,1.269.375,2.449.762,3.088-.49a3.673,3.673,0,0,1,4.947-2.02c2.9,1.146,2.466-1.753,5.157-.551a4.08,4.08,0,0,0,5.417-4.986c-.852-4,.593-6.813-.527-9.612-1.055-2.638-1.6-3.4-.938-4.842a7.043,7.043,0,0,0,0-5.633c-2.939-5.209.536-7-1.633-11.51-1.45-3.017-7.822-5.584-9.952-10.694-1.8-4.332-1.007-10.335-1.771-12.962-.245-.842-1.629-1.122-1.793-.6a5.689,5.689,0,0,0-.211,3.362c.323,4.54-3.59,8.231-4.366,8.082-.265.9,1.389-5.971-1.408-5.988-.882,0-1.021,1.347-1.124,2.238-.769,6.583-8.133,9.255-14.723,8.777-6.441-.465-15.538-.688-20.461,3.534-1.011.867-1.051,1.278-.078,2.4,6.725-3.2,1.807-3.561,3.693,22.449a11.581,11.581,0,0,0,.818,2.415c-1.489-.4-3.938-1.758-3.309-3.162,2.4-5.341-6.5-5.189-3.184-9.583,1.029-1.364,2.566-2.887.693-4.866-6.22-6.573-1.905-10.714-2.366-14a.718.718,0,0,0-1.188-.441c-2.226,1.959-1.729,4.1-3.255,6.69-3.688-4.239.749-19.486,17.784-23.755,1.073-.267,3.48-.262,3.218-1.91-.289-1.829-9.012-1.56-14.552.375a.245.245,0,0,1-.316-.274c.686-3.786,6.34-6.455,11.755-7.418A37.116,37.116,0,0,1,98,83.45c1.619.862,3.4,2.939,4.1,3.012,1.935.218,1.8-.377,1.94-1.092.793-3.918-3.078-8.907-2.246-8.721a9.24,9.24,0,0,1,5.1,2.025c3.458,3.585,1.2,5.579,2.8,6.223,2.143.86,2.535-2.64,4.824-7.452,3.791.735,3.507,5.464,2.638,7.173-.84,1.651-.321,2.99,1.714,2.882A5.931,5.931,0,0,1,124.9,89C128.181,91.563,125.257,93.539,128.92,95.423Zm4.425,21.036c.735-.436,1.817-5.672-1.8-9.362-1.082-1.1-3.149-2.224-4.281-3.184-1.832-1.56-2.427-4.7-3.169-5.919a5.209,5.209,0,0,0-5.451-2.566c-.336.122-.245.22-.245.673a1.009,1.009,0,0,0,.642.936c3.918,1.531,2.694,1.746,5.121,6.918.49,1.021.85,1.276,4.817,4.273,3.534,2.667,2.4,6.482,2.6,7.565a1.075,1.075,0,0,0,1.768.661Zm-18.808,48.06c1.614.022,1.575-4.69-4.883-6.122-.882-.2-1.915,2-.37,2.466,3.073.931-6.446,2.922-9.443,4.075-3.066,1.183-3.355-1.244-4.381-.262a10.059,10.059,0,0,1-2.887,1.354,3.387,3.387,0,0,1-2.971.26c-.056-.842.044-1.452-.688-1.619-.852-.2-1.2-.159-1.469.372-2.863,5.7-.262,6.059.958,4.408,4.18,5.211,2.99,9.908,9.387,11.978,5.748,1.859,10.565-10.219,14.189-16.971C113.375,161.862,112.272,164.49,114.538,164.519Z" transform="translate(76.004 99.14)" fill="#c6a88b"/>
    <path id="Path_620" data-name="Path 620" d="M110.93,107.939c3.257,19.77,3.943,20.757,6,22.743-4.048,11.226.176,5.1-10.234,15.857-2.5,2.581-1.942,4.374-3.759,6.081-6.676,6.264-16.915,4.707-18.058,8.76a4.237,4.237,0,0,0-3.859-1.925c-2.481-.14-1.6-.558-4.55-1.161-1.79-.365-3.563-.546-3.918-1.959a6.142,6.142,0,0,0,4.484-1.239c1.609-1.254,2.091.583,5.985-.245,1.935-.409,1.714-1.9,3.242-1.224,4.315,1.891,7.592-.149,8.356-2.711.6-2.045,3.147-.384,6.091-2.361,1.178-.791,1.523-1.183,2.731-4.7.446-1.3,2.317-1.2,2.53-3.637.042-.49.541-4,1.1-4.246,2.677-1.185,2.449-5.493,2.05-8.395a2.655,2.655,0,0,1,.34-2.27,9.277,9.277,0,0,0,0-7.366c-.321-1.019,1.793-1.354.125-8.591C108.932,106.514,109.527,107.954,110.93,107.939Z" transform="translate(99.705 143.904)" fill="#ffceb6"/>
    <path id="Path_621" data-name="Path 621" d="M87.935,13.718c.245,1.771-1.068,1.009-1.734.771-1.56-.556.064-1.751-1.178-2.109-1.518-.436-.553,1.513-2.155.953-.34-.118-1.127-.49-1.829-.828.8-1.207,1.433-2.54,2.939-2.246C86.015,10.662,87.627,11.507,87.935,13.718Z" transform="translate(112.07 3.238)" fill="#e5bba6"/>
    <path id="Path_622" data-name="Path 622" d="M94.79,14.5c4.244,2.557-.965,6.72-5.057,13.116-1.21,1.891-1.944,2.586-1.643,4.531,2.787,18,4.543,18.21,3.233,19.662C88.072,55.405,87.357,56.341,86,57c-7.905,3.823-4.621,9.389-6.316-11.206-.735-8.946-1.053-10.224-1.134-11.968-.157-3.343.556-3.862-.531-4.577a9.705,9.705,0,0,1-3.184-7.592c0-1.09.225-.644,1.122-1.651.8-.906,2.393,1.469,4.109-.82.617-.823,1.325,1.8,3.8,0,2.069-1.494,1.82-1.3,2.53-.808a25.959,25.959,0,0,0-4.114,4.347c-.735,1.019-.891-.463-1.254-1.3-.426-.98-1.81-.708-1.5.541A11.292,11.292,0,0,1,80.282,26,6.022,6.022,0,0,0,80.6,27.99c3.1.735-1.846-1.714,9.769-10.21.673-.49.894-1.653-.26-1.751-3.48-.3-7.717.585-9.142-2.63a1.3,1.3,0,0,1,1.631-1.78C84.8,12.211,90.433,11.866,94.79,14.5Z" transform="translate(102.972 5.147)" fill="#e5bba6"/>
    <path id="Path_623" data-name="Path 623" d="M113.462,132.974c.813,4.06-4.227-.573-7.1,2.39-1.349,1.384-4.69-2.449-8.081,2.762a4.455,4.455,0,0,0-4.009.135c-.867.691-1.6-.416-3.274,2.184-4.8,7.425-12.93,4.141-11.216-.84,1.516-4.408,3.468-6.612,2.486-10.682-.274-1.126-2.184-1.619-2.184.463a8.434,8.434,0,0,1-.938,4.45c-3.406,6.458-1.7,7.166-3.061,7.592-3.323,1.051-2.091,1.9-3.429,1.753a10.589,10.589,0,0,0-3.8-.331,29.569,29.569,0,0,1-.512-7.347c.245-4.587-2.295-4.9-4.993-13.863-1.178-3.918-.585-8.1-.524-12.651.164-12.019-.588-12.534.735-12.734,12.639-1.959,21.81,2.064,27.673-4.8a5.721,5.721,0,0,0,.715.382c3.064,1.176,7.087-5.539,7.44-5.273,1.457,9.115,6.793,10.815,10.709,14.894,1.359,1.418.825,2.926.617,6.526-.274,4.746,2.694,5.449,1.433,8.459-1.163,2.753-.245,5,.909,7.763C114.054,126.585,112.49,128.127,113.462,132.974Z" transform="translate(85.077 113.513)" fill="#ffceb6"/>
    <path id="Path_624" data-name="Path 624" d="M127.893,214.37a16.564,16.564,0,0,1,2.505,8.667c-7.217.407-4.766,1.381-12-3.184-18.543-11.7-15.357-10.814-29.973-2.339a6.9,6.9,0,0,1-1.053-2.907c-7-25.743-5.809-29.48-11.792-31.371-1.5-.475-2.5-.546-2.694-1.619-1.947-10.824-1.506-7.983-1.058-12.565a26.106,26.106,0,0,0-.306-10.041c-2.2-9.061.752-8.657-1.824-10.21-3.117,2.878.336,11.613-.272,17.968-.823,8.591-.962,5.877.277,12.5.49,2.633.7,3.071-.086,2.993-.948-.1-21.24-2.809-21.4-2.853-.446-.122-.507-.365-.34-.811,4.126-11.116,3.806-3.806,6.35-17.657.539-2.939,1.888-2.532,4.408-8.6,3.549-8.517,5.718-14.9,11.057-17.958,7.763-4.447,7.545-8,15.085-9.257.061,0,.039-.387.407,3.884.808,9.406,2.04,5.669,3.478,10.9.529,1.925,1.224,6.487,4.237,9.2,2.88,2.591,9.453,12.935,14.057,15.139,1.881.9,5.106.948,5.645-2.324a77.965,77.965,0,0,1,1.984-10.837c.311-.762.9-.891,1.168-.086.127.382-.3,2.677.345,2.762.578.076,1.489.558,1.555-2.6a3.083,3.083,0,0,0-1.254-2.586,2.554,2.554,0,0,0-3.583,1.768c-1.844,5.99-1.829,9.693-2.375,11.187-.345.943-1.425,1.114-2.677.735-1.8-.549-4.163-3.877-7.212-7.273a50.362,50.362,0,0,1-8.26-11.236c-3.34-13.626-3.409-2.449-5.037-17.686a9.438,9.438,0,0,1,3.032-6.962c1.469,1.533,2.412,2.449,2.15,3.639-1.207,5.508,3.2,4.962,2.608,8-.769,3.918,3.2,5.973,5.532,5.929,1.69-.032,1.178.916,2.662,2.069,5.953,4.616.282,3.61,11.106,6.367,2.811.72,3.813-.407,4.506,2.165,2.473,9.176,1.107,13.224,2.131,16.307,4.019,12.054-2,10.425,2.9,22.1.867,2.064,1.624,2.2,1.347,4.621-.872,7.648,0,9.842,1.7,16.163C127.626,209.017,126.178,210.971,127.893,214.37Z" transform="translate(63.276 160.5)" fill="#6b807d"/>
    <path id="Path_625" data-name="Path 625" d="M85.372,10.049a1.339,1.339,0,0,1-.468,1.122c-1.413,1.489-2.2,3.585-2.939,3.568a17.806,17.806,0,0,1-3.5-.416,39.043,39.043,0,0,1,1.783-4.594,2.672,2.672,0,0,1,2.106-1C84.669,8.585,85.22,9.437,85.372,10.049Z" transform="translate(108.28 1.059)" fill="#e5bba6"/>
    <path id="Path_626" data-name="Path 626" d="M81.766,9.34c.191.245.245.813-.083,2.106-.213.825-.818,1.521-1.068,2.28-.056.174-.443.269-.7.331a3,3,0,0,0-1.469,4.575c.5.644.331,1.33-.637,3.149-.475.9-1.959.953-2.14-.029A40.508,40.508,0,0,1,76.145,15a22.067,22.067,0,0,1,2.1-4.822C79.588,8.361,81.2,8.6,81.766,9.34Z" transform="translate(104.149 1.16)" fill="#e5bba6"/>
    <path id="Path_627" data-name="Path 627" d="M79.13,14.422c-.686.345-1.158.389-1.489-.044-.093-.12.115-.47.216-.838Z" transform="translate(107.006 8.05)" fill="#e5bba6"/>
    <path id="Path_628" data-name="Path 628" d="M80.173,114.967c1.381-.49,8.41-2.914,7.748-1.6-1.469,2.914-1.469,3.323-3.74,3.639s-8.721,1.81-10.185,2.118c-1.859.389-1.984.22-3.453-2.4,1.107-.407,2.721-.953,3.793-1.349C77.034,114.374,75.922,116.488,80.173,114.967Z" transform="translate(96.639 151.746)" fill="#fff"/>
    <path id="Path_629" data-name="Path 629" d="M76.667,9.972c.735-.808,1.029-.808,2.1-.171-1.523,3-1.866,3.4-1.91,4.922-.169,5.953-.088,6.024-.693,6.882-.355.5-1.266.786-1.482-.086C73.743,17.723,72.7,14.334,76.667,9.972Z" transform="translate(101.419 1.968)" fill="#e5bba6"/>
    <path id="Path_630" data-name="Path 630" d="M72.479,120.037c-1.251-1.979,5.8-4.21,8.37-3.389-.98,1.685-2.6,4.163-4.56,4.736A4.136,4.136,0,0,1,72.479,120.037Z" transform="translate(99.242 156.793)" fill="#ffaeb4"/>
    <path id="Path_631" data-name="Path 631" d="M170.269,113.618a16.425,16.425,0,0,0,5.542-4.695c-2.079-1.553-10.474.081-13.136,4.366C164.45,115.136,168.058,114.678,170.269,113.618Z" transform="translate(233.138 145.05)" fill="#ffaeb4"/>
    <path id="Path_632" data-name="Path 632" d="M472.31,346.24a48.449,48.449,0,0,1-1.291,11.294c-3.094,15.06,1.92,24.786-3.109,35.726-2.773,6.035-7.074,13.375-13.357,15.622-.527.188-1.024.423-1.017,1.712.017,2.756,1.078,8.091.2,12.316,1.083.99,16.514,2.347,16.573,2.352,1.378.137,1.732,1.205,1.581,1.675-.91,2.726-10.555-.844-50.246-5.362-34.611-3.939-18.725-3.822-80.548-12.421-64.536-8.976-47.171-10.2-63.737-3.548a15.207,15.207,0,0,1-1.083,6.58,8.98,8.98,0,0,1-8.658,5.394c-3.428-.176-4.68-.734-7.134,1.122-6.553,4.942-13.748.054-17.209-6.492-.9-1.692,1.979.4-32.095-3.052-20.82-2.108-22.868-.5-30.88-4.629-9.4-4.834-8.774-4.969-11.017-3.9,1.4,2.753,1.979,3.423,1.509,4.479-.9,2.012-1.093,3.362-2.951,3.5-3.216.245-7.275,1.181-9.283-1.247,1.259,4.646,1.153,4.066,3.634,4.489,10.2,1.738,34.136,5.93,44.8,9.084,2.664.79,2.018,5.839,1.581,7.58-.91,3.629,2.226,1.795-21.55,6.717-33.641,6.969-16.145,6.008-44.5,3.122-31.981-3.254-89.185-12.03-89.232-12.03-4.452,0-4.274-4.379-4.606-6.846-.049-.369-3.433-8.443-16.135-52.744-.322-1.117-.552-1.956-.722-2.643-5.383-.875-19.541-3.22-22.854-3.758-2.419-.394-3.851-.824-3.958-1.526a1.842,1.842,0,0,1,.779-1.467c.6-.22,20.066,3.144,25.5,3.993-.265-1.917-.591-4.4-5.138-20.234-3.861-13.448,5.6-7.842,48.8-4.267,38.489,3.179,31.677,5.379,35.689-3.519a26.488,26.488,0,0,0,3.381-7.908c1.056-6.008,1.682-7.455,2.852-9.1,3.033-4.259,5.7-14.754,11.176-20.869,2.424-2.712,6.679-3.812,10.221-7.58,4.168-4.426,10.374-4,10.733-5.171,1.128-3.7,3.691-4.646,3.728-6.079.057-2.162.955-3.553-.247-4.925-2.436-2.78-.341-4.634-1.133-5.6-3.53-4.328.51-6.416-.275-10.16a27.751,27.751,0,0,1-.515-6.189c.324-3.078-1.318-4.658-2.931-8.243-.883-1.956-2.491-.545-5.62-3.042-3.762-3-.467-5.313-2.226-6.582-4.133-3-4.235-6.6-2.206-8.986,2.061-2.445-.727-.381-2.879-7.768-.527.181-1.937.848-2.775-.335a13.879,13.879,0,0,1-.406-14.2c3.572-6.846,6.374-8.291,12.207-12.27a13.523,13.523,0,0,0-4.072,1.223c-2.34,1.115-3.332-.734-2.83-2.758,1.4-5.68,7.787-8.472,11.037-9.326,12.467-3.267,25.711.584,29.626,4.372A12.037,12.037,0,0,0,174.319,176c-.92-1.2-.47-3.037,1.924-2.934,12.18.538,10.033,8.79,11.71,4,.515-1.467,1.685-3.646,3.119-3.147,1.907.663,3.122.23,4.722,3.218,1.074,2.005.8,3.247.7,6.7,4.378.35,8.8,2.907,9.328,7.091s12.687,1.291,13.063,26.3c.074,4.89.205,5.55.084,6.751-.168,1.66,1.672,1.831,2.34,5.064a17.025,17.025,0,0,1,.673,8.617c-1.4,7.876-1.484,4.46-2.115,8.734a7.63,7.63,0,0,1-5.528,5.2c-1.212.318-.876.144,0,4.5.146.712.074.474,4.987,1.223,3.028.467,3.179-4.528,13.395-13.365,2.206-1.907-1.328-4,1.447-7.555a7.688,7.688,0,0,1,3.371-2.494c-.742-4.027-.905-6.03,3.231-6.57,3.018-.4.977,2.3,1.373-8.468a54.1,54.1,0,0,0,.576-10.314,92.491,92.491,0,0,1,1.017-24.207c.381-2.492-2.879-1.411-3.594-5.524a3.025,3.025,0,0,0-1.133-2.083c-.962-.76-1.746-1.746-2.694-2.531a55.758,55.758,0,0,1-5.937-4.8c-6.224-6.357-15.487-12.81-19.074-17.319-4.178-5.25-15.509-14.915-20.828-22.459-3.634-5.159-2.127-10.025-11.294-29.625-1.5-3.208-1.14-4.577-3.859-11.453-2.968-7.5-3.2-7.335-4.9-12.558-1.828-5.6-4.452-8.314-.826-13.02,2.518-3.274,11.25-5.741,11.193-8.287-.049-2.272-.975-15.052-1.074-17.686-.134-3.5-2.911-.125-3.609-10.363-.069-1.007-.784-.658-1.2-1.748-1.435-3.734-2.352-7.548-.247-10.969,2.043-3.34,2.877-5.758,6.659-4.093a4.1,4.1,0,0,1,6.125-.587c4.175-2.445,7.705-1,8.551,1.516.319.951,6.459,1.5,6.028,6.751-.156,1.88-1.078,2.015-.779,2.88,1.1,3.159-.69,4.193-6.889,12.857a9.588,9.588,0,0,0-1.581,3.166,42.471,42.471,0,0,0,2.709,13.258,1.718,1.718,0,0,1,1.568.99,32.644,32.644,0,0,1,2.9,7.695c.886,3.514.378,8.289,2.872,14.145,3.71,8.722,2.093,10.284,5.281,16.282a68.965,68.965,0,0,1,4.205,9.46,5.067,5.067,0,0,1,5.177,1.993c1.484,2.264.742,3.687.411,7.2,2.887.9,2.929,2.279,3.161,3.215a23.347,23.347,0,0,0,.685,4.157c.262.594.67.66,1.467,1.448a60.718,60.718,0,0,1,6.716,6.145,72.411,72.411,0,0,0,13.333,11.309c3.277,2.025,3.891,2.78,8.846,6.333,1.445,1.037,1.615-2.352,5.937-1.435,3.787.807,5.14,3.323,5.115,5,3.216-.734,5.195,2.237,8.435,3.7a54.128,54.128,0,0,1,7.977,3.423c1.073.575,3.03-1.467,6.832-1.487.742,0,.876-.33.938-.4-5.689-6.081-9.105-6.135-9.239-19.522-.057-5.929-.247-5.308-1.1-5.35a4.684,4.684,0,0,1-4.128-1.555c-3.31-4-.9-5.057-2.832-6.45-2.857-2.059-4.081-4.225-2.449-7.353.275-.528.344-.668-1.756-4.233a4.614,4.614,0,0,1,1.524-4.68,1.7,1.7,0,0,0,.871-2.015c-1.356-7.746,4.5-7.692,4.5-8.749.035-4.783,4.9-4.959,6.065-6.6-2.721-8.367.643-7.152-.062-10.539-2.845.13-4.453-.87-4.762-3.734a5.892,5.892,0,0,1-4.01-2.127c-4.324-4.695,6.83-8.2-1.266-7.717-2.535.149-4.453,1.022-5.989-1.827s-.512-5.228.947-7.824c1.036-1.846,3.052-1.775,4.947-1.775-5.645-7.018,3.052-11.825,8.425-9.729a14.141,14.141,0,0,1,1.912,1.105c-.131-3.841,1.947-5.235,5.321-5.719,1.9-.274,2.79.655,5.818,2.724.861-2.289,1.323-4.032,2.869-4.939,4.287-2.518,7.159-1,9.969,2.215a12.355,12.355,0,0,1,8.754-4.714c5.605,1.445,5.734,1.166,6.075,6.807,2.884-.362,3.2-.619,8.843,1.015a5.277,5.277,0,0,1,3.463,6.225,17.089,17.089,0,0,0-.517,2.712,13.594,13.594,0,0,0,1.853.567c2.944.638,6.985,3.592,5.9,6.8a14.485,14.485,0,0,1-1.39,2.482,4.688,4.688,0,0,1,2.9,4.213,6.208,6.208,0,0,1-3.564,6.555c-1.536.8-.571,3.819-4.544,4.966-1.271.369-2.226-.577-1.252,2.032a7.984,7.984,0,0,1-.354,6.02c-.247,1.144-.455.949,1.2,2.5.1.1,1.363-.23,2.226-.245a3.753,3.753,0,0,1,3.029,1.38A3.66,3.66,0,0,1,336.245,85a1.391,1.391,0,0,0,.73,1.638,5.965,5.965,0,0,1,3.086,3.43,5.88,5.88,0,0,1-.308,4.58c-1.012,1.973-1.665,1.286.339,3.088a5.805,5.805,0,0,1-.93,8.964c-.794.474-.247.949-.472,3-.339,2.934-2.894,2.773-2.607,4.193a5.536,5.536,0,0,1-1.791,5.731c-1.125,1.355,3.436,3.841,1.143,8.8-1.934,4.186-2.9,4.849-1.791,6.274,3.557,4.57,3.342,6.6-1.165,11.426-.989,1.047-1.356,1.795-.393,2.99,2.827,3.5,2.021,5.23.7,7.172-1.84,2.7-5.034,4.836-6.033,3.594s.421-2.1.824-4.069c.453-2.2-1.029-2.5-2.768-4.646-1.647-2.042-2.051-4.922,1.62-8.057.742-.636,1.145-1.443.307-3.025-3-5.663-1.346-4.783-3.725-.68a42.473,42.473,0,0,1-6.347,8.174c-7.495,9.717-1.885-1.015,14.255,19.27.106-.364.329-4.061,5.6-4.042.608-1.817,1.1-3.032,3.094-2.954a15.652,15.652,0,0,1,6.679,1.237c6.278,3.179,7.8,2.69,6.011,12.666-2.1,11.781-5.689,18.094-5.3,29.86,2.6.35,4.606-.978,6.5.756a2.492,2.492,0,0,1,.856,2.467,16.81,16.81,0,0,0,.035,2.228c-1.754,24.163-2.389,10.7-1.813,27.386a22.28,22.28,0,0,1-1.215,10.746c-1.944,4.592-3.042,12.683-13.978,13.094-8.41.315-16.368-8.314-16.365-13.02,0-3.983-1.469-4.646-1.8-9.781-.294-4.587-.3-6.846-.93-6.915-6.738,15.082-8.037,13.006-9.736,18.439-1.36,4.352-3.834,5.59-2.187,6.538a4.208,4.208,0,0,1,2.414,2.868,8.753,8.753,0,0,1-1.484,6.005c-.7,1.049-.032.166,1.36,7.824.633,3.484-.23,4.758.331,6.225a118.994,118.994,0,0,1,6.394,22.292c.947,3.934-8.658,9.133-9.182,9.551a45.235,45.235,0,0,1,.764,9.292c.386,7.58,1.9,6.445,1.783,12.742a38.66,38.66,0,0,0,1.675,9.448c3.3-1.768,14.661-22.324,16.358-27.1a70.954,70.954,0,0,1,8.789-18.275c13.934-19.119,40.851-16.561,41.465-20.388.354-2.2-1.551-9.9,4.856-12.277,2.1-.778.084,0-1.732-10.587-1.731-9.988.331-.7-3.013-18.485-1.14-6.062.933-4.695-.46-7.463a13.016,13.016,0,0,1,.905-11.233c1.361-1.929,2.318-1.9,2.412-3.519a44.32,44.32,0,0,1,3.154-10.79c.843-1.421-3.636-1.494-2.5-6.03.638-2.536,2.926-2.047,2.135-3.487a4.07,4.07,0,0,1,1.566-5.1,15.5,15.5,0,0,1,2.491-.9c-.247-4.536.651-4.7,5.966-4.7.633-5.379,5.66-4.413,8.969-3.7a6.193,6.193,0,0,1,9.647-1.7,4.481,4.481,0,0,1,7.26.658,4.766,4.766,0,0,1,7.448-.027,1.8,1.8,0,0,0,2.318.844,5.77,5.77,0,0,1,4.922.455,4.658,4.658,0,0,1,2.078,2.492c.185.423.247.795.707.836.408.037,1.214-.078,2.028.027a5.016,5.016,0,0,1,4.143,2.547,4.9,4.9,0,0,1-.014,4.823c.064.455,1.519,1.223,1.689,3.208.23,2.69-.784,3.785.467,4.582a4.657,4.657,0,0,1,1.863,6.186c-1.774,2.386,1.41,2.523.156,5.868a6.193,6.193,0,0,1-2.051,2.648c-.742.734,1.628,2.184,1.121,4.213a4.477,4.477,0,0,1-2.226,2.653c-1.407,1.029.109,1.391.106,3.274,0,2.252-1.123,2.421-1.912,3.3a6.5,6.5,0,0,1,3.755,5.548,15.681,15.681,0,0,1-.94,7.851c-2.5,6.279-5.375,11.57-11.9,11.03a6.77,6.77,0,0,1-3.179-1.086c-4.764,19.141-4.725,18.74-3.616,19.185,5.813,2.333,8.047,5.105,7.074,11.492-.742,4.89-4.086,3.773,4.029,7.908.656.335,7.75,3.154,15.633,7.4C476.75,307.083,477.739,318.189,472.31,346.24Zm-1.712-3.712c7.057-33.029-2.758-39.553-33.995-53.549-7.121-3.191-4.509-3.968-6.216.873-.43,1.223-.742,5.052-7.042,6.575-6.134,1.484-12.741,1.929-25.725.284a37.157,37.157,0,0,1-16.237-5.678c-3.71-2.611-6.478-5.5-5.835-8.619.141-.675.215-1.369.339-2.166-19.789,3.247-35.33,7.306-42.719,25.513-20.944,51.593-32.879,42.494-31.984,66.6.21,5.653,6.431,13.6,12.262,15.573,11.275,3.829,15.336,8.8,25.636-7.736a54.984,54.984,0,0,0,5.746-19.248c.1-1.179.96-1.337,1.306-1.034a2.71,2.71,0,0,1,.91,2.352,298.034,298.034,0,0,1-8.514,43.58c14.139,2.5,21.34,2.69,62.762,10.314,6.117,1.125-1.484-.323,39.578,5.186,11.779,1.58,10.082,2.115,10.124-1.521a82.4,82.4,0,0,0-.072-9.441c-5.158.641-8.937-.347-14.463-3.964-8.7-5.695-10.562-3.976-15.831-8.744-9.617-8.717-14.56-10.673-20.249-17.094-2.325-2.626,0-4.088-1.843-5.868-.989-.978-4.712-4.5-7.441-7.3-9.264-9.5-11.705-14.805-14.134-17.243a36.055,36.055,0,0,1-5.041-5.061c-2.58-4.7-1.338-7.48-2.083-9.688-2.624-7.771-1.8-5.624-2.256-17.162-.1-2.484-.057-3.9.519-4.44a2.883,2.883,0,0,1,4.1-.139c.1.115.289-.606.435-.565a7.1,7.1,0,0,1-1.761-3.854c-1.113,1.254-8.643,9.448-8.747,9.864a21.637,21.637,0,0,0-1.237,3.966,18.43,18.43,0,0,1-.309,2.352c-2.822,15.326-.742,10.172-8.257,19.857-3.149,4.049-14.505,19.806-14.416,23.547.062,2.545-3.438,10.054-11.163,8.46-6.1-1.259-7.4-3.888-11.856-8.6-6.243-6.6-1.885-20.038,4.089-18.859,2.244.445,19.433-14.446,21.431-16.228,8-7.13-7.849-30.337,23.281-47.372a3.135,3.135,0,0,1,4.586.883,3.413,3.413,0,0,1,2.67.308,3.344,3.344,0,0,1,1.6,2.137c.47,1.12,1.019.071,1.979.3,1.756.421,4.7,1.768,9.3,7.964a37.084,37.084,0,0,1,5.3,10.27c2.174,6.462,1.543,10.433,1.1,17.71-1.056,17.295-2.822,15.023,15.584,27.012,1.187.775,1.506-.245,3.3.7.856.455,3.884,1.32,5.486,2.076,9.617,4.541,9.731,6.186,11.27,6.176,2.439-15.373,3.9-9.944,3.943-20.979a150.039,150.039,0,0,1,3.191-19.5c.881-4.528.693-5.827,1.939-5.68,2.768.328-2.882,16.488-2.644,27.63a29.629,29.629,0,0,1-2.622,11.737c-.275,1-1.843,7.7-.789,8.106,1.9.734,6.52,2.863,8.215,3.687,3.71,1.8,6.033-.391,15.759,3.533,1.049.423,2.305,2.5.188,2.548a36.464,36.464,0,0,0-10.884-2.506c-4.141.017-18.228-6.653-21-7.969a35.669,35.669,0,0,0-8.658-5.3,17.1,17.1,0,0,1-.121,5.966c-1.051,7.311-.69,6.864-1.677,8.971-1.65,3.519-2.347,6.233-4.576,7.507-2.409,1.377-2.758,1.032-2.075,1.646,9.813,8.8,3.191,2.611,10.317,8.257,6.817,5.4,8.865,7.683,10.777,8.9,1.672,1.066,5.994,2.257,8.633,3.744,9.249,5.211,14.154,10.333,25.767-.23a38.5,38.5,0,0,0,7.421-12.937c1.771-4.807-.522-20.131,2.021-33.051,1.756-8.854.064-6.005,1.625-13.341Zm-26.406-136.72c-1.605-3.629,1.237-3.912.44-5.526-1.432-2.846-3.582-2.431-3.681-3.734-.183-2.445,1.9-.934.643-4.844-.576-1.795-2.523-.878-1.717-2.866a4.119,4.119,0,0,0,.725-3.45c-.44-1.584-3.357-2.132-4.477-1.761-.465.154-2.323.765-2.474-.734-.121-1.254-1.895-3.758-3.738-3.267s-2.7,2.269-4.222.32c-1.195-1.531-2.681-3.347-4.423-2.445-.742.386-2.451,3.443-4.126.831-1.069-1.668-1.348-2.166-2.313-1.712-2.226,1.066-2.441,3.179-4.715,1.247-1.269-1.069-2.226-1.731-3.767-1.117-3.5,1.384-1.912,4.546-4.631,3.462-2.951-1.179-3.5-1.655-5.9-.174-1.009.626.611,3.668-2.273,3.648-2.543-.015-.141-.455-4.02,0-.989.117-.275,1.2-.092,2.137.613,3.142-1.732,2.015-3.559,2.761-2.474,1.015-.871,2.758-.3,4.3.3.822-.393,1.186-1.979,2.164a1.876,1.876,0,0,0-1.034,1.221,1.853,1.853,0,0,0,.292,1.566c.566.929,1.85,1.922,2.335.954.933-1.866,1.484-2.986,4.566,0,1.608,1.553,3.023.374,3.807-.142,1.979-1.3,2.58.257,4.081,2.2a4.092,4.092,0,0,0,6.52-.934c.495-1.047,1.915-1.885,2.323-.328A3.771,3.771,0,0,0,409.5,202.3c3.087.553,2.882-4.093,5.385-1.68.7.675,3.431,2.056,4.393.232.918-1.731.841-2.89,2.694-2.147a3.962,3.962,0,0,0,3.1.5,3.916,3.916,0,0,0,2.478-1.9c1.276-2.3,1.361.33,3.433-1.467,1.484-1.293,2.785.775,1.534,2.051a12.313,12.313,0,0,0-1.62,3.978c-1.45,4.712.94,5.3,1.069,6.719.166,1.851-2.278,2.313-.126,4.45,3.745,3.719-1.924,4.262-.141,8.558a2.111,2.111,0,0,1-.319,2.333.969.969,0,0,0-.188,1.05.99.99,0,0,0,.895.6c1.556.181,1.1-.785,5.195-1.575.989-.191.022-.345,1.924-1.433,3.926-2.25-1.2-3.587,2.192-6.069,1.42-1.039,2.2-1.223,1.321-3.122a2.479,2.479,0,0,1,.233-3.929C444.653,208.248,444.759,207.089,444.193,205.808ZM430.2,245.581a5.018,5.018,0,0,0,6.508.13c4.148-3.047,7.225-11.392,5.853-16.1a4.671,4.671,0,0,0-3.057-3.108,6.5,6.5,0,0,0-4.717.645,6.936,6.936,0,0,1-3.841,1.289,17.377,17.377,0,0,0-6.459-.208c-3.505.281-1.833,4.927-9.214,7.35-6.926,2.272-15.245-2.934-14.347-10.869.168-1.487.653-2.827-.7-3.438-2.142-.978-3.5,1.223-3.322,3.577,1.2-1.389.673-1.895,2.07-1.626,1.054.2.559,1.592.111,2.572-.913,2-3.164,2.6-6.125,5.445-1.338,1.286-.43,3.668.633,4.543,3.958,3.21,7.258.2,7.789,2.242.606,2.338-2.526,1.79-3.352,1.971a5.639,5.639,0,0,1-4.079-.8,7.146,7.146,0,0,1-4.324-6.24,11.645,11.645,0,0,1-10.362-1.787c-.7,2.577.391,3.3,2.226,16.955a75.606,75.606,0,0,0,2.521,11.566c1.521,7.546,20.321,18.048,34.4,1.245,1.257-1.5,3.282,1.269-1.67,5.245-9.459,7.595-16.981,8.277-27.986,2.907-1.979,7.167-1.759,3.89,3.1,6.455a31.668,31.668,0,0,0,11.48,2.66c11.839,1.02,15.255-.218,16.175-.939,1.1-.866,1.185-.631,2.419-7.091,3.809-19.943,5.068-20.556,5.145-23.84C427.137,244.492,428.485,244.035,430.2,245.581Zm-.759,35.831a13.273,13.273,0,0,0,.893-7c-.3-2.768-4-4.487-4.682-4.619-.851-.169-1.222.022-1.4.381a5.688,5.688,0,0,0-.062,3.387c.811,2.8,1.877,8.032-16.257,6.952-15.4-.917-15.641-3.423-18.042-3.729a8.723,8.723,0,0,1-6.951-5.179c-.611-1.433.742-3.4,1.875-2.223.633.648-.087,1.523.989,2.122.465-2.558.764-3.969.3-4.453-1.551-1.631-1.675-1.6-3.483-.807-5.3,2.333-2.367,7.052-3.574,11.9-.7,2.8-1.835,4.775-.376,7.162,2.023,3.308,5.407,4.274,8.319,6.211a36.1,36.1,0,0,0,10.54,2.976,101.139,101.139,0,0,0,12.687,1.076c12.863.23,15.8-2.626,17.09-5.135,1.4-2.736,1.185-6.365,2.125-9.015Zm.861-65.217a1.614,1.614,0,0,0-.44-2.091c-1.44-1.433-1.915-2.614-.495-4.46,1.125-1.467-1.811-2.677-.942-7.24.282-1.467,1.017-2.787.589-3.008a.719.719,0,0,0-.68.274c-2.709,3.47-5.966.391-6.941,2.274-1.484,2.883-3.958,1.785-7.386,1.181a6.9,6.9,0,0,1-8.351-.115c-1.544-1.188-3.532,3.668-8.982.35-1.652-1-1.655-2.978-2.8-2.247-2.8,1.787-4.823-.144-6.5-1.668a26.315,26.315,0,0,0-3.216,5.837,18.237,18.237,0,0,0-1.237,6.357c6.6-1.577,11.223,1.01,13.184,4.768a16.37,16.37,0,0,1,.858,2.739,4.775,4.775,0,0,1,5.155.279c4.962-6.485,9.051-6.639,14.889-4.907a8.563,8.563,0,0,1,4.856,3.863,13.53,13.53,0,0,1,1.38,6.538c.067,1.318-1.6,1.108,5.237.616a6.07,6.07,0,0,1,.413-3.047,12.267,12.267,0,0,1,1.408-6.294Zm-9.486,9.375a9.16,9.16,0,0,0-1.262-6.357c-5.714-4.4-9.949-3.863-14.285.21a8.558,8.558,0,0,0-1.28,9.286,8.746,8.746,0,0,0,8.038,4.971c6.33-1.487,7.911-3.487,8.786-8.111ZM410.3,359.39c.208-2.3-14.948-8.313-20.189-15.233a14.933,14.933,0,0,1-2.662-5.12c0-10.595,1.6-18.016,1.262-24.131-.48-8.766-7.794-19.578-13.11-22.8-2.288-1.389-2.4.391-2.263.895.584,2.169,4.453,5.277,5.326,6.252,2.634,2.915,1.62,4.3,3.985,6.641a29.656,29.656,0,0,1,3.851,7.091,1.939,1.939,0,0,1-.406,2.181c-4.262-5.934-1.046-4.538-8.539-10.888-2.709-2.294-1.7-1.743-2.437.465-.428,1.271,10.525,10.6,10.055,16.052-1.625-.134-2.394-3.071-4.3-5.543-1.346-1.743-2.8-3.423-7.067-8.377-1.472,1.223-1.548,1.372-.151,3.893.989,1.783,1.464.748,2.5,2.066a53.642,53.642,0,0,1,5.528,7.871c.3.638,2.385,5.465,2.419,5.952.087,1.24-1.069,1.875-1.751.489-1.336-2.707-7.737-16.123-8.658-12.15-.581,2.5,6.137,10.624,5.509,14.507-.915,5.646-1.7,8.137-1.118,11.184.282,1.467.116,1.814-.609,2-2.362.594-1.422-7.335-1.138-9.732.193-1.611-1.351-.6-2.474-3.969-1.318-3.964-.95-10.206-2.036-13-.393-1.007-1-1.773-1.924-1.518-.693.191-.989.43-.886,2.056.228,3.8.423,10.2.742,12.561.277,2.137,2.451,6.252,2.313,8.257-.467,6.678,3.807,8.453,6.481,11.3,7.421,7.891-.663,3.423,25.844,28.168,1.457,1.359,5-7.631,4.915-9.414C409.2,365.187,409.76,365.376,410.3,359.39ZM395.027,221.52c-.517-3.223-.453-4.912-3.933-6.846a8.578,8.578,0,0,0-8.2-.115c-.742.4-.905.746-.3,4.223.537,3.118-.168,3.8-2.085,7.692-.905,1.836-.908,1.868.742,2.934a7.892,7.892,0,0,0,9.152.34A8.933,8.933,0,0,0,395.027,221.52ZM378.5,224.968c2.367-3.929,2.2-2.69,1.274-7.688A7.673,7.673,0,0,0,378.5,224.968Zm-1.009,76.289c-.208-.719-3.287-4.859-4.025-3.6-.475.8,3,3.352,4.015,3.607Zm-3.893,1.883c.106-1-1.65-.932-2.54-.262-7.475,5.624-6.154,5.707-11.821,11.411-.779.785-2.521-.076-1.484-1.333,6.352-7.69,10.753-11.72,10.842-13.16a3.3,3.3,0,0,1,3.216-2.768c.547-.015,1.422-.636,1.219-1.081a12.919,12.919,0,0,1-1.237-2.467c-.079-.345-.9.526-1.237.755-9.058,6.316-13.721,15.451-15.848,16.83-.905.587-1.353-.462-.73-1.467,9.783-15.837,17.246-16.16,16.8-19.3a2.057,2.057,0,0,0-.829-1.391c-.284-.169-.915-.443-2,.734a70.786,70.786,0,0,1-7.7,6.13c-3.557,2.641-9.457,13.761-11.032,13.162-2.172-.824,2.81-5.284,5.8-10.375,1.85-3.162,2.4-3,9.6-8.411a7.542,7.542,0,0,0,1.863-1.758c.344-.67-.586-1.142-1.007-1.164-1.217-.061-5.331,2.812-8.41,5.3a31.961,31.961,0,0,0-8.2,10.113c-3.352,6.443-3.26,7.406-3.584,17.079-.519,15.507.428,11.8-8.855,20.217-1.378,1.249-18.223,13.937-20.234,15.779a5.383,5.383,0,0,0-1.3,1.753c-1.578,4.543.374,8.384,3.762,11.778,4.007,4.015,7.72,7.071,12.788,4.546,3.132-1.558-2.543-1.223,22.683-34.014,6.557-8.529,1.524-17.928,8.6-24.557,4.321-4.044,2.177-3.357,10.208-10.468a2.224,2.224,0,0,0,.653-1.6Zm-.769-2.748c.606-.315.1-.545-.374-1.054-1.432-1.548-2.805.474-1.994,1.919a11.317,11.317,0,0,1,2.35-.856Zm-21.956-77.44c2.647-19.862,3.411-10-10.772-4.093-2.607,1.086-9.528,2.973-11.131,1.435a31.269,31.269,0,0,0,.262,8.71c.67,3.237-.173,4.768-.925,8.282-.527,2.467-.356,3.179-1.175,3.3-2.869.423,1.2-6.25-.131-12.118a42.119,42.119,0,0,1,.213-11.446c.611-6.411,6.32-4.284,7.381-12.58.8-6.26-.989-3.438-2.437-15.133a5.3,5.3,0,0,1-4.307-1.55c3.32,8.675-9.909,14.091-42.251,42.394-2.506,2.2-8.428,11.666-14,19.6-3.584,5.1,0,.164-8.41,20.705a51.382,51.382,0,0,0-2.384,6.707.963.963,0,0,1-1.843-.161c-.247-1.56,2.093-7.008,8.324-23.554,2.147-5.7,2.449-4.064,5.8-9.392,5.937-9.45,7.139-10.184,7.139-10.184s-.455-.015-.591-1.606c-.989-11.624,2.088,2.883-6.632-20.727-11.094-30.046-12.571-30.611-5.533-34.88,2.474-1.506,4.678-2.306,6.058-3.323-4.838-5.174-15.9-12.685,3.569-21.459-1.548-1.1-5.989-2.12-7.436-3.166-3.317-2.4-4.029-2.993-5.848-3.008-1.286,0-1.252.685-2.491,2.428-.683.961-1.8.866-1.445-.455.947-3.555,1.343-4.365.22-5.746a3.575,3.575,0,0,0-5.195-.756c-2.427,2.531-.715,9.311-2.815,9.627-2.36.352.329-8.037-.678-8.717-24.62-16.666-19.259-16.4-29.834-24.491-.495.692-.727,1.467-1.276,2.389a.994.994,0,0,1-1.232.516.976.976,0,0,1-.626-1.169,23.7,23.7,0,0,0,.7-8.1c-.062-.885-.725-2.022-1.524-1.783-.742.22-.366,2.3-.928,3.318a47.729,47.729,0,0,1-2.662,4.088,1.282,1.282,0,0,1-1.556.245c-1.843-1.2,2.325-4.58,2.291-5.966-.047-1.912,1.5-4.514,1.484-8.147,0-2.4-3.08-3.648-2.647-2.147.881,3.044-4.989,10.495-8.163,11.776-.868.35-2.105-.646-.334-2.294,2.8-2.6,1.731-.748,6.09-7.115.989-1.455-.069-1.956-1.407-5.991-1.838-5.538-4.611-8.37-5.4-13.294a73.122,73.122,0,0,0-4.205-13.372c-1.865-5.509-.581-8.292-2.84-13.937-6.889,9.724-4.992,4.851-12.489,11.546a13.233,13.233,0,0,1-14.3,1.572c-.247-.421.054.69.44,1.521a53.421,53.421,0,0,1,2.662,8.225c4.175,10.27,4.972,11.446,5.548,14.248,1.83,8.891,3.292,4.321,10.636,29.024,1.781,5.981,4.452,8.013,8.808,12.622.71.753,16.974,17.925,17.775,18.583,12.591,10.3,16.759,15.422,20.847,18.055a14.243,14.243,0,0,1,3.31,2.912c2.211-5.5,2.432-7.854,3.762-5.756a15.7,15.7,0,0,1-.673,3.912c-1.059,3.868-2.3,4.695.111,7.091,1.192,1.181.989-.142,5.177-11.827.933-2.6,1.417-3.4,2.409-2.951,1.65.734-4.126,12.715-5.336,19.752a115.012,115.012,0,0,0-.688,24.434c.4,6.162-1.323,7.372-.391,15.223.359,3.022.8,2.817,3.023,4.157,1.291.78.532,2.445-.769,2.012a20.052,20.052,0,0,0-3.71-1.467c-3.827-.022-4,.734-3.859,1.831.712,5.436,4.794,5.751,8.1,9.658.458.54-.378,2.037-1.838.978a23.877,23.877,0,0,1-6.622-5.423.494.494,0,0,0-.325-.251.5.5,0,0,0-.4.08c-5.689,3.272-1.36,5.174,1.383,8.272.6.677-.522,1.871-1.373,1.306-2.535-1.68-2.691-1.506-3.072-1.2a57.051,57.051,0,0,0-12.469,14.282,3.527,3.527,0,0,1,1.61,1.54c1.484,2.8,6.983,4.678,10.389,11.04.453.841.576.521,3.537,1.311,6.508,1.731,9.672,5.211,14.137,6.357a66.731,66.731,0,0,1,13.37,6.076c11.178,5.81,14.488,23.141,15.935,22.664a32.191,32.191,0,0,1,9.694-1.907c4.205.32,3-.489,7.4-1.89,1.979-.633,11.962-3.668,14.033-3.844-3.7-18.828-6.733-19.828-6.431-23.718.47-5.91-3.03-11-.883-13.766,2.395-3.083.846-6.069-1.912-5.56a50.958,50.958,0,0,1-12.083-.67c-14.619-3.577-10.535-5.5-8.46-4.646a51.422,51.422,0,0,0,18.537,3.113c2.474.186,1.86-1.511,3.028-3.218,2.859-4.176,1.882-4.89,4.042-8.443,1.365-2.247,9.13-14.025,8.277-16.715-2.11-6.658-1.39-5.208-1.779-10.949-.054-.785,0-2.88,1.054-2.822,2.147.117-.433,6.137,2.926,13.448,2.822,6.132,1.108,9.184,2.622,14.407,1.9,6.573.861,6.416,1.484,7.668a18.438,18.438,0,0,0,9.684,8.8c4.18,1.675,5.387.286,7.619.178,5.538-.269,9.724-12.16,9.679-17.228C350.421,229.377,349.563,232.834,350.876,222.951Zm.265-54.136c.262-3.042-1.877-4.022-5.293-5.819a17.586,17.586,0,0,0-5.922-1.281c-.841-.11-1.979,1.69-.9,1.7a12.825,12.825,0,0,1,4.222,1.35c1.877.619,2.756,1.712,2.548,2.408a1.333,1.333,0,0,1-.807.654,1.349,1.349,0,0,1-1.036-.119,14.7,14.7,0,0,0-8.291-2.863,2.512,2.512,0,0,0-2.149.879,2.448,2.448,0,0,0-.485,2.248,21.772,21.772,0,0,1,6.731,1.844c1.133.443,1.286,2.044-.648,1.924-.918-.059-.467-.081-2.54-.895a11.277,11.277,0,0,0-4.885-.829,3.716,3.716,0,0,0-2.736,2.389c-1.316,3.022,2.5,3.712,2.078,3.338-.495-.455-.932-.978-.569-1.611.727-1.286,4.086.89,5.195,1.406,1.536.714-.126,2.729-2.273,2.12-1.558-.443-2.385.447-4.4,1.712-1.558.978-1.712,1.467.294,6.245a2.521,2.521,0,0,0,3.179,1.337v-2.492c-.722.166-1.43.455-1.694-.21-.168-.425-.411-.951.074-1.3,7.327-5.289,1.158,4.074,5.9,16.008.339.851.339.9-.668,8.069-2,14.238-3.409,11.891,6.063,8.534l-.015-.044.052.029c-.589.584,2.474-1.386,2.535-1.416a.857.857,0,0,0,.45-.978c-1.677-21.1,4.972-32.476,5.989-44.333Zm-13.573,230c5.759-23.187,4.257-16.346-.576-10.49-5,6.059-10.55,7.487-18.626,4.247.015,3.149,1.576,5.844.077,10.646,9.3,1.369,16.467,2.335,16.467,2.335.928.127.92.266,2.659-6.739Zm.653-294.119c2.226-1.105,1.853-4.658-.275-6.184-4.883-3.5,3.557-5.4-.881-9.338-1.083-.961-2.808-1.076-2.721-4.1.069-2.352-1.375-2.917-2.859-2.624-3.74.734-2.674-2.91-6.115-1.956-.806.227-1.838.281-2.654.469-.9.208-1.576-.269-1.237-1.115a3.349,3.349,0,0,0-1.257-3.423,53.472,53.472,0,0,0-5.64-2.582,30.563,30.563,0,0,0-16.573.3c-13.32,3.179-14.9,9.093-20.407,11.773a4.475,4.475,0,0,0-2.931,4.135c-.43,1.526-.886,1.088-2.968,2.553-2.167,1.523-1.153,3.118-1.2,3.978-.391,6.719-4.512,4.33-.866,9.827.819,1.223.312,1.658-.163,3.988-.792,3.878,2.758,2.69,3.24,6.692.208,1.712,1.4,4.081,3.315,4.3,2.872.337-3.869-9.235.6-18.035.383-.756.846-1.467,1.286-2.237-1.732-.655-3.057,1.355-3.772.245a1.244,1.244,0,0,1,.47-1.626c3.156-2.47,4.126-.1,7.584-.646,5.18-.819,4.678-3.851,7.97-2.147,1.506.778,2.155.315,4.683-.139,2.1-.377,2.6-1.9,3.851-3.494,1.771-2.257,2.2.034,6.288.13,3.134.071,3.426-3.778,7.653-2.756.7-2.3,1.605-6.013,3.535-6.372a.609.609,0,0,1,.508.134.594.594,0,0,1,.209.477c-.124,2.968-4.732,7.382.633,11.737,1.979,1.6,1.712,2.585,1.427,3.668-.334,1.252-.475,2.6.453,3.208,1.375.9,4.1,1.687,4.044,5.135-.03,2.007-1.407,3.365.228,4.113a4.321,4.321,0,0,1,2.125,1.533,4.779,4.779,0,0,1,4.771-.7,4.688,4.688,0,0,1,2.915,3.8c1.843-2.523-1.18-4,1.591-6.081,4.143-3.108-1.192-4.5,3.146-6.641Zm-3.666-41.839a4.717,4.717,0,0,0,1.882-4.871c-.742-2.2-5.279-1.487-2.946-4.4,1.615-2.022,2.189-3.012,1.16-3.964-1.714-1.587-4.339-3.179-6.535-2.345-1.069.4-1.979-1.093-1.4-2.213a13.324,13.324,0,0,0,1.15-4.313,2.741,2.741,0,0,0-2.083-2.9c-.693-.186-7.544-2.558-8.944-.042-.131.245-.571.281-.8.489-.764.663-1.732-.489-1.514-1.452.707-3.235,1.163-3.951.606-5.2a6.667,6.667,0,0,0-6.236-.956c-6.518,2.871-2.721,7.066-5.736,7.135-1.858.042-.866-6.568-6.909-6.374-2.6.083-4,3.409-3.738,5.26.317,2.2-1.408,3.575-3.367,1.091-3.958-5.013-8.5-3.027-7.836.636a14.556,14.556,0,0,1,.2,1.883,1.289,1.289,0,0,1-.636,1.2A1.322,1.322,0,0,1,279.5,41.5c-.856-.462-2.9-2.394-4.744-2.538-3.995-.311-7.458,2.814-5.195,5.489a13.918,13.918,0,0,1,2.419,2.748c1.652,3.423-5.576.785-6.394,2.611-.947,2.105-1.9,2.69-1.264,5.1.495,1.836,2.387,1.526,4.47,1.105,3.933-.792,6.419,2.372,4.3,4.819-1.709,1.976-2.884,2.9-1.21,4.1,1.979,1.426,4.027.191,4.242,2.472.2,2.161,1.524,2.506,2.5,1.8,1.432-1.037,1.685-2.5,4.168-4.2a18.667,18.667,0,0,1,9.771-4.025c4.344-.624,9.269-2.976,14.174-3.423a27.763,27.763,0,0,1,15.089,2.663,14.288,14.288,0,0,1,6.656,7.431c.514,1.186,1.754.425,2.142.137,2.407-1.785,1.623-3.663,3.931-4.939Zm-.94,78.607c.876-1.467,0-3.9-1.551-5.766-3.332-4.022,4.178-7.751.8-12.081-.769,1.037.552-.452-3.245,5.822-.821,1.359-1.813,1.235-2.491,1.631a2.517,2.517,0,0,0-.881,2.553c.4,4.208,5.546,7.707,1.385,10.832a3.97,3.97,0,0,0-1.675,5.3c1.128,1.9,4.628,3.357,3.052,7.736,3.641-2.917,3.513-4.184,2.558-5.79s-3.08-3.575-1.484-5.785A43.507,43.507,0,0,0,333.616,141.464Zm-3.767-16.319a10.382,10.382,0,0,0,1.6-8.36,3.35,3.35,0,0,0-4.178-1.5c-3.945,2.646-3.438,6.277-4.571,5.079-.707-.748.334-2.783.829-3.6,1.591-2.638-4.316-.895-2.328-8.052.472-1.712-.2-2.037-2.592-3.423-4.232-2.472.092-5.115-2.105-6.922a7.656,7.656,0,0,1-3.545-5.348c-1.306.166-2.328-.384-3.99,1.267-3.5,3.467-7.972.631-8.586.836s-1.868,3.577-5.1,4.179a8.471,8.471,0,0,1-6.095-.115c-1.682-1.056-1.076,1.147-4.569,1.861-4.576.936-4.237.125-5.442,1.9a18.1,18.1,0,0,0-1.66,11.438c1.286,7.027,2.691,6.326,2.9,13.793.26,9.348-.495,12.38,11.938,20.833,6.318,4.294,9.18,7.3,15.848,3.832,2.686-1.4,4.452-4.012,8.237-8.521,2.652-3.164,5.855-5.722,7.322-12.842.369-1.79-.554-1.484-.428-2.976.161-1.922,2.211.394,2.266.428C327.35,130.057,327.634,128.644,329.848,125.145Zm-3.372,47.925c.989-3.536,3.29-3.648,2.283-5.135a37.194,37.194,0,0,0-15.937-13.6c-3.973,5.888,8.076,1.973-2.936,20.011-2.12,3.472-2.226,4.379-6.241,11.37-14.3,24.83-22.027,30.224-22.027,45.516,1.452-.785-.651-.027,6.157-6.357,4.947-4.6,27.41-21.273,37.1-30.921,3.792-3.775-2.563-11.1-5.026-13.27-2.993-2.636,1.932-3.553,3.851-5.365S326.222,173.994,326.477,173.07Zm.591-95.85a5.256,5.256,0,0,0,.522-3.132c-1.326,1.061-4.274,2.161-4.081,2.959.51,2.139.477,1.223,2.4,1.091.876-.054.9-.017,1.158-.9Zm1.009,99.83c-1.266-1.567.074-1.807-6.607,2.311a36.275,36.275,0,0,1,5.65,6.846,16.766,16.766,0,0,1-1.469-5.083c-.284-2.33,1.155-3.105,2.427-4.061Zm-1.43-105.087c1.172-1.254-.91-7.754-4.485-9.15a89.472,89.472,0,0,1,1.14,11.169,7.266,7.266,0,0,0,3.344-2.007Zm-5.355,2.355a47.66,47.66,0,0,0-1.143-11.123,10.134,10.134,0,0,0-1.291,1.756c-.715,1.487-2.12,1.907-2.7,2.792a16.113,16.113,0,0,1-3.357,3.423,38.574,38.574,0,0,1,8.489,3.164ZM318.361,392.3Zm-2.54,10.468c1.655-5.054-.378-7.746-.047-11.248a25.854,25.854,0,0,1-9.966-5.286c-4.863-4.3-4.012-5.543-4.334-4.108-.9,4.027.134,1.636-2.77,6.6-3.057,5.218-2.7,6.374-6.525,10.248,1.219.425,12.833,2.2,23.643,3.8Zm-4.1-333.339c2.679-2.69,5.093-5.269,7.463-8.086A14.891,14.891,0,0,0,308.7,59.559C311.009,63.943,310.569,61.935,311.717,69.432Zm-3.174,96.605c1.257-13.49,3.216-10.859-2.419-8.181-5.721,2.714-8.2,2.787-14.347-1.621-2.736-1.956-1.2-4.55-4.133,13.047-.48,2.866-2.874,2.934-2.474.259.69-4.519.99-3.6-.779-4.294a40.2,40.2,0,0,0-.6,6.871c-.054,9.514,9.818,12.83,17.132,10.228,2.075-.734,2.607-.636,3.517-2.316,6.822-12.57,3.216-4.45,4.1-13.994Zm-7.173-94.85c7.7-1.712,8.536,1.32,8.247-2.157a13.28,13.28,0,0,0-2.5-7.966c-.668.841-6.233,9.781-6.553,10.054a2.557,2.557,0,0,0,.809.068Zm-2.694,291.706c2.105-9.272,10.142-16.859,9.719-18.583-3.483-13.937-1.279-12.172-2.788-17.079-2.347-7.644.324-4.118-2.8-21.723a35.742,35.742,0,0,0-5.563,1.99c-4.781,2.23-2.4-.489-14.713,2.724-2.105.548,3.03,3.722,13.011,35.963,1.284,4.127,2.367,20.05,3.132,16.7ZM298.9,69.672a93.534,93.534,0,0,0,6.2-9.744,14.083,14.083,0,0,0-4.309.572c-2.968.924-4.747,1.467-6.1,2,3.107,3.653,1.323,1.937,4.21,7.162Zm-4.712,127.267c10.552-18.864,9.771-10.377-.037-11.786a13.948,13.948,0,0,1-10.444-5.494c0,4.719-1.286,6.746,9.152,9.027-.282,1.137-.648,1.58-1.625,1.511a15.346,15.346,0,0,1-7.47-2.237,149,149,0,0,0,.6,24.672,24.564,24.564,0,0,0,2.414-4.054c1.578-3.4,5.692-8.563,7.416-11.649ZM288.369,75.4c10.231-4.7,9.857-1.743,7.915-6.357a11.59,11.59,0,0,0-2.968-4.795,68.147,68.147,0,0,0-4.945,11.143Zm7.619,312.609c5.974-6.932.549-18.116-.809-26.537-1.65-10.228-1.066-10.218-1.838-13.2a163.266,163.266,0,0,0-9.833-28.07c-4.205-10.076-3.052-6.815-5.781-14.221-6.268-17.008-11.4-17.737-20.283-22.067-4.974-2.426-6.567-1.78-10.763-4.418a39.68,39.68,0,0,0-10.723-4.731c.193,3.423-2.318,4.509-3.013,8.382a20.242,20.242,0,0,1-2.778,8.844c-8.022,11.04-4.309,13.6-12.182,20.295-2.226,1.9-10.676,10-13.884,11.343-7.2,3.022-7.8-14.035-12.712-14.077-.247.822-.665,1.487-1.519,1.337-.638-.11-.433-.655-.495-1.056-.495-3.313,4.032-3.9,5.867-.636,6.313,11.235,5.872,13.189,7.559,12.106,2.624-1.682,5.066-3.912,5.872-4.421a59.325,59.325,0,0,0,8.455-7.25,18.394,18.394,0,0,0,4.905-7.445c1.064-2.3,2.582-6.005,2.946-6.626a74.021,74.021,0,0,0,4.292-7.091c2.283-12.592,4.329-11,4.072-13.267a15.159,15.159,0,0,0-5.392-8.157c-6.021-4.308-4.584-7.025-11.072-7.531-1.66-.13-1.843.108-1.467,1.692.1.435.272.795.769.734a5.8,5.8,0,0,1,5.689,5.455c.3,6.6-3.54,8.756-4.034,13.28-.512,4.685-6.29,9.24-9.7,12.321-1.331,1.2-1.947,6.846-7.975,8.832a17.242,17.242,0,0,1-8.039,2.629c-3.7.523-7.092,2.007-6.4,5.624.4,2.061.826,12.24,1.979,15.62,3,8.8-2.187,11.032,1.882,18.4,3.033,5.494.866,8.5,1.625,14.316.561,4.294,2.59,7.888,2.112,11.844-.43,3.585,1.873,4.435,2.968,10.164.168.875.774,2.841,1.732,2.778a161.584,161.584,0,0,0,30.541-4.174c-.891-6.135,4.905-13.365,11.131-11.184,2.335-3.323,2.5-3.824,3.71-4.379,3.181-1.467,2.988-1.6,2.721-2.391a31.329,31.329,0,0,1-1.685-9.047c-.576-19.654-9.664-19.138-6.142-51.686.1-.929.453-1.741,1.368-1.521,1.45.347.923.489.557,5.868-1.39,20.256,4.495,31.567,5.716,37.486,1.365,6.617-.148,8.152,1.568,13.751,1.8,5.881,1.808,5.939,2.825,6.079,1.165.156,2.031.548,9.917,5.025a14.286,14.286,0,0,1,5.833,9.194c1.417,6.132,7.643,7.335,10.5,23.354.413,2.318-.275,3.719,3.441,1.827,5.984-3.052,1.934-.685,7.5-3.012,5.949-2.536,6.545-8.155,8.47-10.389ZM286.506,74.64A93.977,93.977,0,0,1,291.453,63.3a16.166,16.166,0,0,0-9.523,5.135c1.744,3.338,3.206,3.731,4.579,6.194Zm.754,81.423a12.66,12.66,0,0,0,.171-4.907c-6.53,1.086-13.679,3.817-17.607,8.111-5.177,5.656,5.036,10.208,5.867,13.666.888,3.7-2.968,1.743-9.152,7.118-1.979,1.726-.989,2.9.623,8.3a296,296,0,0,0,12.979,35.178c.769-1.88.742-2.492,1.44-4.568.989-2.934,1.665-3.157,1.195-4.069-2.189-4.262-1.14-47.094-.148-51.773a14.708,14.708,0,0,1,4.635-7.062Zm-1.67-78.951a28.212,28.212,0,0,0-4.784-6.044,7.941,7.941,0,0,1-.7,4.668,5.312,5.312,0,0,0,.581,4.961ZM261.157,415.384c4.277-1.888,17.256,3.55,12.368-17.216a46.375,46.375,0,0,0-6.562-14.287,11.622,11.622,0,0,1-3.193-4.937c-1.009-4.005-2.112-7.357-5.464-9.7-17.088-11.959-12.944,3.423-20.006,1.223-4.838-1.5-7.614,4.753-6.844,7.905,1.18.051,2.333.3,2.76-2.037.312-1.7,3.426-2.147,4.722-.934,7.668,7.179,4.477,1.584,11.792,17.048a112.706,112.706,0,0,0,6.966,13.448c1.2,3.841.364,9.536-3.216,7.741-1.237-.611-2.674-1.927-3.352-1.956a17.732,17.732,0,0,0-4.866.12c1.6,2.047,1.783,3.25,4.6,4.966C255.349,419.5,257.792,416.865,261.157,415.384Zm-6.36-6.331c2.226-.4-.1-1.157-10.965-24.94-1.37-3-3.433-3.372-4.242-4.157-.965-.944-1.061-.467-10.186,1.455-16.227,3.423-38.8,5.22-41.885,4.609-2.659-.528-4.551-2.345-13.2-7.656-9.419-5.78-6.679-6.756-21.864,2.382,1.469,5.186.213,2.445,7.544.535.876-.23,1.069.824.079,1.548-7.136,5.218-6.525,1.956-5.167,8.14,2.632-1.927,7-5.749,9.051-3.553-2.622,3.232-9.647,4.851-8.019,8.612,1.526,3.521-.809,1.149,4.861-2.325a18.683,18.683,0,0,1,5.059-2.137c.873-.227,1.153-.076,1.887,1-5.726,3.714-10.493,5.079-8.571,10.074.43,1.12.742,3.8,2.892,3.714,5.385-.205,6.379-.377,6.226-2.174-.134-1.57-.2-1.861-.876-1.937-1.45-.164-.455-.335-2.968.225-1.155.257-1.924-.895-1.034-1.616,6.644-5.4,8.851-3.081,17.921,1.418a25.758,25.758,0,0,0,12.863,2.917c23.976,2.017,54.122,5.013,60.6,3.851ZM217.968,243.959c.223-1.223,3.05-9.592.72-14.774-2.862-6.357-11.03-3.086-11.426,5.531-.119,2.582.767,4.093.408,6.113a21.019,21.019,0,0,0,.361,6.475c.2,2.007,4.947,2.863,7.223,1.205a5.27,5.27,0,0,0,2.714-4.55Zm-1.276-20.2c-1.031-12.661.9-22.94-11.319-29.146-3.71-1.88-.742-3.854-4.059-6.423a6.039,6.039,0,0,0-6.09-1.5c-2.056.108-2.58-1.223-1.732-2.878.878-1.712,1.165-6.436-2.664-7.162-2.313,4.8-2.709,8.3-4.873,7.441-1.618-.643.663-2.633-2.83-6.213a9.394,9.394,0,0,0-5.155-2.022c-.841-.186,3.07,4.788,2.268,8.707-.146.714,0,1.308-1.959,1.091-.707-.078-2.506-2.147-4.141-3.008a37.876,37.876,0,0,0-22.73-3.448c-5.459.961-11.171,3.626-11.873,7.406a.243.243,0,0,0,.082.226.25.25,0,0,0,.237.048c5.6-1.932,14.406-2.2,14.7-.374.265,1.646-2.167,1.641-3.25,1.907-17.206,4.262-21.688,19.485-17.963,23.718,1.541-2.587,1.039-4.714,3.287-6.68a.731.731,0,0,1,.734-.136.718.718,0,0,1,.466.576c.465,3.281-3.893,7.416,2.389,13.979,1.892,1.976.339,3.5-.7,4.858-3.352,4.387,5.635,4.235,3.216,9.568-.636,1.4,1.838,2.756,3.342,3.157a11.468,11.468,0,0,1-.826-2.411c-1.9-25.97,3.062-25.608-3.73-22.415-.989-1.115-.942-1.526.079-2.391,4.972-4.215,14.161-3.993,20.667-3.528,6.656.477,14.1-2.2,14.871-8.763.1-.89.247-2.24,1.135-2.235,2.825.017,1.155,6.876,1.422,5.978.784.152,4.737-3.533,4.41-8.069a5.618,5.618,0,0,1,.213-3.357c.166-.526,1.563-.245,1.811.594.772,2.624-.035,8.617,1.788,12.942,2.152,5.1,8.588,7.666,10.053,10.678,2.192,4.509-1.328,6.294,1.65,11.492a6.958,6.958,0,0,1,0,5.624c-.668,1.44-.119,2.2.947,4.834,1.13,2.795-.329,5.6.532,9.6a4.043,4.043,0,0,1-1.148,4.194,4.157,4.157,0,0,1-4.323.784c-2.721-1.2-2.278,1.694-5.209.55a3.75,3.75,0,0,0-2.938-.057,3.688,3.688,0,0,0-2.058,2.074c-.638,1.252-1.838.866-3.119.489-2.051-.6-2.941.961-3.832,2.108-5.566,7.179-12.615,5.993-15.158,2.56-.148-.2-1.8-1.866-2.8-.389-2.278,3.362-3.589-.325-6.454,1.372a2.934,2.934,0,0,0-.809,4.362c2.157,2.57-.663,4.108,1.385,6.516,2.607,3.071-.03,5.4,1.276,7.335,1.526,2.262,2.85,2.721,2.548,5.421a4.367,4.367,0,0,0,1.108,3.726,4.338,4.338,0,0,1,1.553,4.157c-.22,3.342,2.622,3.668,6.147,3.394,3.26-.259,1.979,2.445,4.581,2.851,3.782.6,3.005-2.237,5.195-1.875,4.032.675,4.415.8,5.543,0a4.323,4.323,0,0,1,5.034-.577,3,3,0,0,0,2.578.257,2.95,2.95,0,0,0,1.8-1.842c1.388-4.184,5.773-1.445,7.5-4.4,1.608-2.751.6-3.668,2.679-4.8a1.473,1.473,0,0,0,.92-1.032,19.987,19.987,0,0,0,.517-3.523c.156-3.159,2.474-1.55,2.679-3.883.378-4.064-.952-4.372.369-6.739,2.246-4.025-1.576-5.3.386-8.194,1.731-2.553-1.655-13.693-1.657-13.761-.6-9.617.346-7.67-.059-9.1-2.337-8.22,4.878-16.764,11.366-14.24Zm.208,50.822c-2.075-1.983-2.768-2.968-6.058-22.708-1.417.015-2.018-1.423-1.358,1.406,1.685,7.225-.45,7.56-.126,8.578a9.164,9.164,0,0,1,0,7.355,2.625,2.625,0,0,0-.344,2.267c.411,2.9.633,7.2-2.07,8.382-.569.245-1.074,3.753-1.116,4.24-.215,2.43-2.105,2.335-2.555,3.631-1.219,3.514-1.568,3.912-2.758,4.695-2.968,1.973-5.543.315-6.152,2.357-.762,2.558-4.081,4.594-8.44,2.707-1.534-.665-1.321.824-3.275,1.223-3.933.826-4.42-1.007-6.045.244a6.256,6.256,0,0,1-4.529,1.237c.359,1.4,2.15,1.582,3.958,1.956,2.983.6,2.09,1.02,4.6,1.159a4.3,4.3,0,0,1,3.9,1.922c1.155-4.047,11.5-2.492,18.24-8.746,1.835-1.712,1.274-3.494,3.8-6.071,10.52-10.739,6.253-4.626,10.342-15.832ZM205.99,428.874a12.833,12.833,0,0,0,.314-3.768c-6.332,1.677-39.857,7.986-40.9,8.069-.977.068-.7.626-.47,3.748.064.89-.042.834,3.879-.188,6.184-1.619,36.921-7.81,37.178-7.866ZM198.3,17.712c.673.245,2,1,1.751-.77-.312-2.2-1.939-3.056-3.995-3.453-1.524-.293-2.164,1.037-2.968,2.242.71.33,1.5.709,1.848.826,1.618.56.643-1.386,2.177-.951C198.359,15.964,196.719,17.157,198.3,17.712Zm.673,6.14a2.841,2.841,0,0,0,.442-2.362,2.875,2.875,0,0,0-1.53-1.866c-4.4-2.626-10.09-2.281-12.316-2.873a1.326,1.326,0,0,0-1.413.353,1.289,1.289,0,0,0-.217,1.425c1.44,3.21,5.719,2.325,9.234,2.626,1.165.1.942,1.257.262,1.748-11.732,8.475-6.738,10.94-9.867,10.194a5.949,5.949,0,0,1-.319-1.983,11.16,11.16,0,0,0-.762-4.032c-.312-1.247,1.086-1.511,1.516-.54.366.834.524,2.313,1.266,1.3a26.046,26.046,0,0,1,4.156-4.34c-.717-.489-.465-.685-2.555.807-2.5,1.785-3.216-.831-3.839,0-1.732,2.286-3.339-.086-4.151.819-.905,1-1.135.56-1.133,1.648a9.636,9.636,0,0,0,3.216,7.58c1.1.714.378,1.223.537,4.57.082,1.741.4,3.017,1.145,11.949,1.712,20.564-1.605,15.006,6.379,11.189,1.37-.655,2.093-1.589,5.375-5.184,1.323-1.45-.45-1.66-3.265-19.632-.3-1.941.438-2.636,1.66-4.524,1.962-3.059,4.908-6.472,6.179-8.869Zm-7.275,224.98c2.914-2.959,8,1.668,7.173-2.386-.989-4.839.6-6.384-.413-8.759-1.175-2.761-2.093-5-.918-7.751,1.284-3.005-1.732-3.707-1.447-8.446.21-3.594.742-5.1-.623-6.516-3.958-4.074-9.345-5.771-10.817-14.871-.356-.267-4.42,6.438-7.515,5.264a5.8,5.8,0,0,1-.722-.381c-5.919,6.846-15.183,2.844-27.952,4.795-1.343.205-.584.719-.742,12.715-.062,4.543-.66,8.729.529,12.632,2.721,8.964,5.293,9.262,5.044,13.842a29.192,29.192,0,0,0,.517,7.335,10.814,10.814,0,0,1,3.837.33c1.351.142.106-.7,3.463-1.751,1.375-.428-.349-1.135,3.092-7.58a8.34,8.34,0,0,0,.947-4.443c0-2.078,1.929-1.587,2.206-.462.989,4.054-.989,6.267-2.511,10.666-1.732,4.973,6.483,8.252,11.329.839,1.694-2.6,2.432-1.492,3.307-2.181a4.546,4.546,0,0,1,4.049-.134c3.428-5.208,6.8-1.374,8.165-2.756Zm2.582,134.649a16.4,16.4,0,0,0-2.53-8.653c-1.732-3.394-.267-5.345-.952-7.871-1.714-6.3-2.6-8.492-1.717-16.138.28-2.423-.495-2.553-1.36-4.614-4.947-11.656,1.128-10.025-2.931-22.065-1.034-3.071.346-7.12-2.152-16.282-.7-2.567-1.712-1.443-4.551-2.161-10.933-2.763-5.195-1.758-11.218-6.357-1.5-1.152-.989-2.1-2.689-2.066-2.355.044-6.365-2-5.588-5.92.6-3.037-3.854-2.492-2.634-7.991.265-1.2-.7-2.1-2.172-3.633a9.374,9.374,0,0,0-3.062,6.952c1.645,15.223,1.714,4.054,5.088,17.659a50.321,50.321,0,0,0,8.343,11.218c3.082,3.391,5.467,6.714,7.285,7.262,1.264.382,2.355.21,2.7-.734.552-1.492.537-5.189,2.4-11.169a2.555,2.555,0,0,1,1.379-1.745,2.607,2.607,0,0,1,2.24-.021,3.066,3.066,0,0,1,1.267,2.582c-.067,3.149-.989,2.668-1.571,2.592-.653-.086-.22-2.377-.349-2.758-.272-.8-.866-.675-1.18.086a77.041,77.041,0,0,0-2,10.82c-.544,3.267-3.8,3.218-5.7,2.32-4.65-2.2-11.289-12.529-14.2-15.116-3.047-2.712-3.745-7.267-4.279-9.189-1.452-5.218-2.7-1.487-3.513-10.878-.371-4.264-.349-3.888-.411-3.878-7.616,1.254-7.4,4.8-15.237,9.243-5.392,3.056-7.584,9.426-11.168,17.93-2.553,6.059-3.916,5.663-4.452,8.587-2.57,13.83-2.246,6.531-6.414,17.63-.168.445-.106.687.344.809.163.044,20.659,2.753,21.617,2.849.789.078.584-.359.087-2.988-1.252-6.6-1.111-3.912-.279-12.485.613-6.345-2.874-15.067.275-17.94,2.6,1.55-.371,1.142,1.843,10.194a25.772,25.772,0,0,1,.309,10.025c-.453,4.575-.9,1.738,1.069,12.546.2,1.071,1.2,1.142,2.721,1.616,6.043,1.888,4.836,5.624,11.91,31.322a6.841,6.841,0,0,0,1.064,2.9c14.762-8.463,11.544-9.348,30.274,2.335,7.285,4.553,4.809,3.58,12.1,3.174ZM193.232,12.223a1.33,1.33,0,0,0,.472-1.12c-.153-.611-.71-1.467-3.048-1.315a2.711,2.711,0,0,0-2.127,1,38.712,38.712,0,0,0-1.8,4.587,18.186,18.186,0,0,0,3.532.416C191.005,15.8,191.794,13.71,193.232,12.223ZM204.9,422.964c-.052-.819-34.059-7.2-43.152-8.727-1.865-.313-1.868-2.2,3.112,16.453C166.675,430.788,203.428,423.25,204.9,422.964ZM185.868,12.6c.341-1.291.277-1.851.084-2.1-.571-.734-2.2-.978-3.562.841a21.9,21.9,0,0,0-2.122,4.814,39.987,39.987,0,0,0-.48,6.736c.183.978,1.682.924,2.162.029.977-1.817,1.153-2.5.643-3.144a2.964,2.964,0,0,1-.417-2.652,3.01,3.01,0,0,1,1.9-1.916c.247-.061.648-.156.7-.33C185.042,14.118,185.653,13.424,185.868,12.6Zm-1.237,9.793c.334.433.811.389,1.5.044l-1.286-.88c-.092.367-.3.716-.208.836ZM180.2,11.773c-1.078-.636-1.373-.636-2.117.171-4,4.345-2.953,7.729-2.009,11.529.218.87,1.138.587,1.5.086.611-.856.529-.927.7-6.871.054-1.521.4-1.922,1.939-4.915Zm-17.619,426.49c-.317-5.59.1-4.435-1.3-4.57-75.516-7.335-84.844-10.2-110.189-12.835C51.989,424.947,39.374,423.35,162.584,438.263Zm-60.049-13.421c10.585,1.43,49.605,6.306,59.594,6.074-.015-.054-8.843-32.841-10.636-43.125a32.774,32.774,0,0,0-1.732-6.044c-6.55-24.676-6.988-28.87-9.076-33.049-1.264-2.528-.247-3.893-59.453-8.622-61.226-4.89-55.075-10.514-50.5,8.069,5.781,23.5,7.668,31.963,19.4,68.452C50.98,419.232,47.29,417.372,102.535,424.841Z" transform="translate(0 0)" fill="#000001"/>
    <path id="Path_633" data-name="Path 633" d="M178.029,106.556c-.46-9.147,9.847-11.106,8.437-3.279-.216,1.2-1.753,1.379-2.011.186a15.5,15.5,0,0,0-.174-1.844c-.874-2.8-5.468,3.377-3.333,5.344,2.694,2.488.024,7.246-2.762,5.388a1.242,1.242,0,0,1,.507-2.28C181.389,110.014,178.157,109.137,178.029,106.556Z" transform="translate(254.777 130.667)" fill="#000001"/>
    <path id="Path_634" data-name="Path 634" d="M177.769,156.862c.762,3.208-6.086,5.388-1.829-19.976.12-.708.284-1.393.935-1.1C180.01,135.972,174.872,144.637,177.769,156.862Z" transform="translate(250.323 184.585)" fill="#000001"/>
    <path id="Path_635" data-name="Path 635" d="M172.917,95.85c8.606-.245,7.624,5.074,5.192,4.068-.245-.105-2.363-2.694-8.184-1.117-.245.066-2.814,1.327-3.154-.12C166.349,96.911,170.887,95.544,172.917,95.85Z" transform="translate(239.032 126.927)" fill="#000001"/>
    <path id="Path_636" data-name="Path 636" d="M186.566,103.269c2.6-3.313,6.561,7.646,3.6,7.888-2.334.193-.147-5.836-4.511,3.184-6.688,13.841-19.432,12.607-20.816,5.035a20.756,20.756,0,0,0-2.611-8.444c-2.226-4-.431-.429-2.552-.541-1.78-.093-.669-3.8.647-5.292.779-.882,2.466-1.134,2.226,1.362,3.428,1.335,15.276,1.469,18.857.671,2.652-.588,2.637-.83,5.559-1.342C186.316,104.983,185.724,104.339,186.566,103.269Zm-4.538,9.8c2.851-.522,3.184-3.034,4.009-4.815-3.213.7-7.988,2.233-22.285.869,1.007,1.873,1.1,3.539,1.864,3.673,8.628,1.455,9.159.078,12.521.654a12.837,12.837,0,0,0,3.891-.382ZM175.95,121.9a16.425,16.425,0,0,0,5.542-4.695c-2.079-1.553-10.474.081-13.136,4.366,1.775,1.827,5.383,1.371,7.594.311Z" transform="translate(227.457 136.795)" fill="#000001"/>
    <path id="Path_637" data-name="Path 637" d="M158.433,98.35c-.088-3.578,10.43-3.918,9.157-.47-.507,1.369-2.184.081-3.477.1C160.424,98.042,158.49,100.662,158.433,98.35Z" transform="translate(226.991 126.442)" fill="#000001"/>
    <path id="Path_638" data-name="Path 638" d="M141.218,56.518c-1.3,3.1,1.014,3.213.588,4.54-.72,2.26-3.7-1.494-2.758-3.813,1.4-3.451,1.714-3.539.882-4.628s-2.329-1.256-1.648-3.206a7.021,7.021,0,0,0,0-5.189c-.916-3.318-4.308-.541-4.408-2.491-.113-2.3,5.189-1.533,5.924.767a12.18,12.18,0,0,1,.754,6.311c-.11.522-.6,1.335-.125,1.734C142.742,52.482,142.12,54.373,141.218,56.518Z" transform="translate(189.953 46.762)" fill="#000001"/>
    <path id="Path_639" data-name="Path 639" d="M136.769,53.358c.686-.583,2.584-.735,2.344.889-.245,1.185-.3.49-1.224.791-.539.176-1.21.583-1.327,1.026-.7,2.657.473,2.787.074,4.011-.718,2.2-3.061,1.374-2.2.127C135.87,58.106,133.761,55.912,136.769,53.358Z" transform="translate(190.478 64.986)" fill="#000001"/>
    <path id="Path_640" data-name="Path 640" d="M140.436,25.389c.808.517.823,2.116-.887,2.878-3.142,1.4-3.4,4.535-6.69,3.509-1.332-.416-1.053-1.959.262-1.9,2.473.1,2.1-1.859,4.8-2.956C138.832,26.552,139.567,24.838,140.436,25.389Z" transform="translate(187.18 25.061)" fill="#000001"/>
    <path id="Path_641" data-name="Path 641" d="M141.284,49.779c-.889,1.621-1.741.6-4.763.764a41.208,41.208,0,0,0-7.472,2.229c-2.035.6-4.54.017-3.6-1.878.522-1.058,2.069-.647,3.308-.8C130.406,49.889,136.913,46.894,141.284,49.779Z" transform="translate(177.286 58.601)" fill="#000001"/>
    <path id="Path_642" data-name="Path 642" d="M133.546,23.584c1.3-4.864,4.589,1.685-1.163,3.578a5.473,5.473,0,0,1-4.163,6.171c-1.264.274-1.959-1.139-.862-1.824,1.824-1.141,3.441-1.9,3.184-4.065C130.15,24.331,133.042,25.48,133.546,23.584Z" transform="translate(179.551 20.051)" fill="#000001"/>
    <path id="Path_643" data-name="Path 643" d="M140.252,59.024c3.365.546,4.18,5.657,2.427,5.182-.34-.091-.355-1.109-1.082-1.344-4.856,7.428-7.053,13.758-11.51,12.45-2.275-.666-4.408-4.19-7.939-7.317-.047.958-.407,1.567-.962,1.254-1.242-.7-.4-4.07,1.183-4.859a.71.71,0,0,1,1.033.362c0,.23-.433.612-.433.916,6,0,15.1-2.63,17.387-4.626-.4-.49-1.136-.6-1.146-1a.926.926,0,0,1,1.043-1.021Zm-.661,4.354a.152.152,0,0,0-.211-.2c-4.543,2.892-13.8,3.673-15.732,3.825a.245.245,0,0,0-.186.384,8.793,8.793,0,0,0,1.063,1.178.475.475,0,0,0,.316.13,25.773,25.773,0,0,0,13.288-2.912.282.282,0,0,0,.093-.093Zm-3.791,6.35a.2.2,0,0,0-.191-.311,10.761,10.761,0,0,0-6.083,1.57c-1.678,1.5-.943,1.624.039,2.275C132.007,74.9,133.87,72.753,135.8,69.728Z" transform="translate(170.47 73.748)" fill="#000001"/>
    <path id="Path_644" data-name="Path 644" d="M140.768,36.032c2.361.5,5.356,2.6,5.2,4.139-.206,1.984-1.753-1.244-6.2-2.285-2.963-.691-2,1.5-6.166,1.8-3.482.245-4.626.171-6.245,2.493-1.078,1.543-1.2,1.944-2.716,2.113-4.163.463-4.109-.078-4.653,1.435-.042.118-.6,1.758-1.67,1.322-.551-.223-.526-.735-.551-1.124.176-2.721,3.443-3.282,6.306-3.458,1.553-.1,1.046-2.091,3.96-3.612a13.883,13.883,0,0,1,5.086-1C136.989,37.634,136.409,35.1,140.768,36.032Z" transform="translate(166.333 40.343)" fill="#000001"/>
    <path id="Path_645" data-name="Path 645" d="M128.636,55.478c0,1.944-2.27,1.778-2.285-.137C126.336,53.348,128.629,53.855,128.636,55.478Z" transform="translate(178.828 66.567)" fill="#000001"/>
    <path id="Path_646" data-name="Path 646" d="M141.6,40.061c.189,1.092-.561,1.156-1.543,1.254-1.523.157-3.673.029-4.381,1.136-1.146,1.817-4.555,2.341-6.705,2.476-3.069.191-2.792,3.918-6.957,2.782-2.116-.576-3.774.835-4.9,1.082-.558.122-.825-.3-.793-.828.1-1.629,3.2-2.694,5.358-2.2,3.252.735,3.147-2.378,6.517-2.638,1.141-.088,2.265-.4,3.4-.575a3.144,3.144,0,0,0,2.4-1.308C135.063,39.546,141.3,38.371,141.6,40.061Z" transform="translate(164.184 45.285)" fill="#000001"/>
    <path id="Path_647" data-name="Path 647" d="M129.824,66.818c.806-1.107,2.082-.651,1.989.441-.421,5.008-13.364,8.145-8.219-4.048,2.672-6.326-.691-9.061,1.041-10.726.262-.245,1.144.264,1.315.767,2.339,6.857-1.082,11.51-1.5,13.922C123.9,70.342,127.745,69.676,129.824,66.818Z" transform="translate(173.032 64.217)" fill="#000001"/>
    <path id="Path_648" data-name="Path 648" d="M116.181,113.345c9.994,1.4,23.36-2.2,22.7.1-.385,1.347.424,1.175-10.53,2.15-.245.022-9.507.627-11.74-.4C114.2,114.1,115.84,113.3,116.181,113.345Z" transform="translate(162.705 151.275)" fill="#000001"/>
    <path id="Path_649" data-name="Path 649" d="M125.743,32.655c.967,1.538-.193,5.1-3.482-1.469-1.494-2.988,1.714-4.775.651-6.48-.8-1.278.735-3.769,1.976-1.695a4.7,4.7,0,0,1,.059,4.687C124.022,29.968,123.677,29.378,125.743,32.655Z" transform="translate(172.217 20.619)" fill="#000001"/>
    <path id="Path_650" data-name="Path 650" d="M122.876,55.335c.754,1.619-.632,2.9-1.658,1.925C119.433,55.558,121.791,53.013,122.876,55.335Z" transform="translate(170.311 67.088)" fill="#000001"/>
    <path id="Path_651" data-name="Path 651" d="M127.747,48.742c.906.46.962,2.285-.377,2.336-6.316.245-8.155,6.21-10.675,5.388C118.86,52.565,123.79,46.734,127.747,48.742Z" transform="translate(164.655 58.312)" fill="#000001"/>
    <path id="Path_652" data-name="Path 652" d="M121.15,102.676c.1,2.647-3.566,3-3.546.583a2.481,2.481,0,0,1,1.714-2.15,2.079,2.079,0,0,1,1.832,1.567Z" transform="translate(165.945 134.589)" fill="#000001"/>
    <path id="Path_653" data-name="Path 653" d="M122.451,33.54c6.754,1.376,2.679,5.388,1.589,3.274-.735-1.418-1.864-.62-3.556-1.5-3.429-1.773,1.695-7.374-1.513-8.045-1.944-.407-4.957-.345-3.989-2.767.245-.59,1.038-.571,1.851.353.992,1.122,3.808,0,5.062,1.673.377.49,1.107,1.425.1,4.163C121.341,32.468,121.694,33.386,122.451,33.54Z" transform="translate(161.852 23.356)" fill="#000001"/>
    <path id="Path_654" data-name="Path 654" d="M114.342,108.534c.882-.017,1.984.842,1.959,1.58-.086,2.579-3.654,2.549-3.62.309A1.959,1.959,0,0,1,114.342,108.534Z" transform="translate(158.69 145.32)" fill="#000001"/>
    <path id="Path_655" data-name="Path 655" d="M110.6,118.2c1.112-1.9,3.2-.26,3.223,1.038C113.205,122.8,108.876,121.15,110.6,118.2Z" transform="translate(155.033 158.038)" fill="#000001"/>
    <path id="Path_656" data-name="Path 656" d="M121.991,183.634c3.3,5.554-1.264,6.211-1.469,4.376a21.525,21.525,0,0,0-1.553-4.315c-1.773-5.488-1.42-6.335-3.279-8.155-6.394-6.262-3.867-8.162-9.551-14.2-2.175-2.307-2.956-1.744-3.323-2.726s.147-1.513,1.469-1.509c1.528.23,2.015.887,4.922,3.808,3.85,3.869,2.863,7.141,8.361,12.46C121.294,176.968,120.025,180.318,121.991,183.634Z" transform="translate(144.073 215.391)" fill="#000001"/>
    <path id="Path_657" data-name="Path 657" d="M89.644,99.363c1.469-2.383,7.075-.838,5.89,2.716a.833.833,0,0,1-1.046.534c-.629-.2-.451-.955-1.67-1.626-1.393-.767-1.749.179-2,.691-.747,1.533-1.3,4.146-.105,4.793a3.769,3.769,0,0,1,2.412,3.357c-.118,1.469-1.364,2.571-2.236,3.754-.551.735-.556,2.006-1.3,1.9-1.768-.262-1.119-3.377.446-4.494.992-.708,1.173-1.428-.49-2.366C86.292,106.766,87.69,102.517,89.644,99.363Z" transform="translate(121.752 130.402)" fill="#000001"/>
    <path id="Path_658" data-name="Path 658" d="M94.865,96.031c3.615,3.691,2.54,8.926,1.8,9.362a1.075,1.075,0,0,1-1.763-.666c-.2-1.082.938-4.9-2.6-7.565-3.967-3-4.34-3.252-4.817-4.273-2.429-5.172-1.2-5.388-5.121-6.918a1.009,1.009,0,0,1-.642-.935c0-.453-.1-.551.245-.673a5.209,5.209,0,0,1,5.451,2.566c.735,1.224,1.337,4.359,3.169,5.919C91.723,93.808,93.783,94.927,94.865,96.031Z" transform="translate(113.099 110.257)" fill="#000001"/>
    <path id="Path_659" data-name="Path 659" d="M88.055,98.08c1.739.921,3.132.091,3.017,2.069-.169,2.922-3.774.556-5.128,1.445-2.26,1.482-8.326,4.626-11.777,2.907-2.412-1.2-.676-4.163-.167-3.918.553.265.98-.2,1.45-.215,2.216-.088,3.918-1.714,6.068-1.959a8.4,8.4,0,0,1,6.536-.328Z" transform="translate(100.145 129.473)" fill="#000001"/>
    <path id="Path_660" data-name="Path 660" d="M92.046,110.035c6.458,1.43,6.5,6.142,4.883,6.122-2.265-.029-1.163-2.657-2.552-.071-3.624,6.752-8.441,18.83-14.189,16.971-6.4-2.069-5.206-6.766-9.387-11.978-1.224,1.663-3.82,1.308-.958-4.408.267-.531.61-.568,1.469-.372.735.167.632.776.688,1.619a3.387,3.387,0,0,0,2.971-.26,10.058,10.058,0,0,0,2.887-1.354c1.026-.98,1.315,1.445,4.381.262,3-1.153,12.517-3.144,9.443-4.075C90.131,112.034,91.164,109.839,92.046,110.035Zm-1.224,7.619c.661-1.315-6.367,1.107-7.748,1.6-4.251,1.521-3.14-.593-5.836.409-1.073.4-2.694.943-3.793,1.349,1.469,2.62,1.594,2.789,3.453,2.4,1.469-.309,7.925-1.8,10.185-2.118s2.27-.725,3.732-3.639Zm-4.482,8.339c-2.566-.82-9.622,1.411-8.37,3.389a4.136,4.136,0,0,0,3.811,1.347c1.952-.563,3.575-3.051,4.553-4.736Z" transform="translate(93.74 147.455)" fill="#000001"/>
    <path id="Path_661" data-name="Path 661" d="M76.111,103.608c2.694,1.687-.015,5.238-1.714,2.86C73.439,105.117,74.255,102.45,76.111,103.608Z" transform="translate(101.671 137.79)" fill="#000001"/>
    <path id="Path_662" data-name="Path 662" d="M72.418,98.619c2.882-1.4,6.482,2.469,3.394,4.024-1.293.649-8.187,1.788-9.928,4.592-.85,1.369-2.187,1.092-2.182-.6.157-2.586,1.633-2.116,2.03-3.384C66.508,100.769,70.143,99.721,72.418,98.619Z" transform="translate(86.537 130.553)" fill="#000001"/>
    <path id="Path_663" data-name="Path 663" d="M69.2,105.244c2.483,1.558.534,5.4-1.393,3.2C66.165,106.569,67.382,104.105,69.2,105.244Z" transform="translate(91.415 140.147)" fill="#000001"/>
    <path id="Path_664" data-name="Path 664" d="M77.812,123.615c1.315,1.161.2,2.956-1.489,1.768-11.564-8.155-17.233-9.837-11.25-28.653,4.7-14.77,4.08-19.711-4.741-20.559-3.86-.11,2.814-5.525,5.437-17.363.174-.781-.632-1.469-1.3-1.918a20.1,20.1,0,0,0-2.4-1.555c-9.759-4.653-11.858-21.551-7.347-19.893.411.186.894.475.446,1.633-1.553,2.326,1.445,9.281,2.784,11.706,1.8,3.247,4.122,3.97,7.526,6.034,6.213,3.769-2.939,15.524-3.514,19.148,14.98,1.7,4.357,22.334,3.078,31.256C63.4,116.721,69.549,116.332,77.812,123.615Z" transform="translate(69.982 39.621)" fill="#000001"/>
    <path id="Path_665" data-name="Path 665" d="M94.348,109.622c1.913-.887,2.255,1.714,1.3,3.847-.517,1.149-3.578.842-4.927.531-3.717-.86-6.215-3.051-10.32-5.848-3.612-2.461-8.38,9.641-17.25,8.326-8.686-1.281-8.39-4.491-13.734-11.216-1.364-1.714-1.959-.206-5.322,2.8-2.4,2.15-7.148,4.055-14.241,2.75-8.62-1.587-12.054-7.937-10.976-16.6.211-1.685.58-2.829,1.8-2.508,1.408.365.353,1.643.132,3.994-.647,6.93,2.843,11.605,8.29,13.063,5.118,1.369,10.641,1.817,16.072-4.606,2.28-2.694,4.212-2.694,5.694-.838,1.3,1.629,3.563,5.373,5.023,7.2a9.475,9.475,0,0,0,12.392,2.349c3.566-2.449,6.326-5.508,8.456-6.784,5.7-3.411,7.259,4.543,16.163,5.946C94.149,112.235,93.334,110.095,94.348,109.622Z" transform="translate(19.819 120.909)" fill="#000001"/>
    <path id="Path_666" data-name="Path 666" d="M92.078,108.019a17.3,17.3,0,0,1-.064,5.958c-.38,1.19-1.136,1.251-1.281.842a9.811,9.811,0,0,1-.245-3c-.024-9.7-5.04-7.66-8.224-8.155-6.666-1.036-2.424-11.206-3.593-17.143C77.756,81.854,61.99,96.883,56.85,85.2c-2.461-5.6-.98-18.93-8.625-20.735C32.868,60.835,20.211,75.071,18.549,74.747c-4.131-.818,12.085-13.356,25.959-12.639,12.734.656,11.006,10.286,13.077,19.817,2,9.2,11.554,4.313,16.5,2.415,9.174-3.517,6.7,4.354,6.237,12.073-.365,6.086.825,5.331,7.364,6.037C90.077,102.7,91.715,104.634,92.078,108.019Z" transform="translate(18.673 78.156)" fill="#000001"/>
    <path id="Path_667" data-name="Path 667" d="M41.18,155.69c14.329-3.566,18.245,22.04,11.326,28.057-2.366,2.057-7.709,2.826-10.386.279s-4.43-3.272-6.367-8.415C33.023,168.409,33.985,157.48,41.18,155.69Zm12.47,17.9a20.672,20.672,0,0,0-3.384-11.623,7.219,7.219,0,0,0-5.618-4.06c-9.9-.842-10.425,14.814-3.593,21.717,2.76,2.787,4.709,4.393,7.908,2.988C49.987,182.165,53.158,182.121,53.65,173.594Z" transform="translate(43.273 212.854)" fill="#000001"/>
    <path id="Path_668" data-name="Path 668" d="M91.333,82.924a29.289,29.289,0,0,1-2.882,1.1C80.813,87,72.557,83.864,64.8,88.578a16.533,16.533,0,0,0-4.739,5.184c-.529.771.786,1.714,1.352.945a16.2,16.2,0,0,1,10.827-6.3c6.233-.85,15.536.323,20.3-4.055C93.329,83.514,92.234,82.471,91.333,82.924Z" transform="translate(81.053 108.143)" fill="#000001"/>
  </g>
</svg>
