<svg width="400" height="400" viewBox="0 0 400 400" fill="none" xmlns="http://www.w3.org/2000/svg">
<path d="M338.776 318.002C376.176 358.458 396.708 364.424 344.812 364.648C19.0861 366.046 3.16408 368.952 14.9121 354.288C18.5581 349.736 27.91 341.036 51.768 316.556C53.476 314.804 52.254 314.848 54.908 314.916L334.498 314.946C335.962 314.478 336.554 315.596 338.776 318.002Z" fill="#AC8EFF"/>
<path d="M337.218 148.628C336.086 192.222 335.784 309.288 335.738 311.108C335.682 313.31 335.72 315.866 55.9681 312.36C53.1441 312.324 53.3861 311.912 53.2761 310.802C53.2021 310.048 52.2821 233.518 52.0101 183.006C51.7581 135.956 51.9501 134.694 54.4061 131.882C56.8101 129.126 63.0181 129.004 74.0681 128.64C79.7841 128.452 296.868 128.942 317.902 129.112C337.536 129.27 337.644 132.232 337.218 148.628Z" fill="#AC8EFF"/>
<path d="M320.58 342.678C321.228 343.282 321.49 344.248 320.478 344.29C319.466 344.332 99.7724 347.248 68.7144 345.138C66.1884 344.966 68.4184 342.238 69.1664 341.346C82.4564 325.528 83.7304 324.346 86.5984 324.322C200.07 323.38 186.738 323.63 300.216 323.656C301.93 323.656 303.674 323.724 304.826 324.966C319.09 340.334 317.244 339.57 320.578 342.68L320.58 342.678Z" fill="#EEE5FF"/>
<path d="M376.114 365.98C374.74 375.65 374.498 375.896 367.716 375.91C14.8062 376.628 16.2761 378.624 14.1021 370.746C13.9621 370.24 12.7641 365.526 13.1621 365.192C13.6541 364.778 13.0261 367.492 46.3421 367.84C349.394 371.006 370.212 368.88 375.498 365.342C375.828 365.122 376.166 365.6 376.112 365.98H376.114Z" fill="#C7B3FF"/>
<path d="M376.046 351.858C380.156 356.418 379.536 359.486 379.312 361.754C378.984 365.078 378.364 369.714 377.856 372.298C377.272 375.278 377.024 378.864 367.638 379.148C276.97 381.88 33.0621 380.052 19.9342 378.276C12.2402 377.234 10.1282 374.56 9.99816 357.928C9.96216 353.264 18.2202 346.844 27.2361 337.17C46.8421 316.132 50.5941 315.24 50.1441 312.558C50.0221 311.828 49.0701 163.552 49.7701 137.586C50.0121 128.56 54.4881 126.858 63.5761 126.39C70.2801 126.044 307.304 126.222 317.628 126.254C329.938 126.292 339.514 126.178 339.88 138.414C340.032 143.51 339.384 312.698 339.384 312.762C339.37 316.38 351.412 324.53 376.046 351.858ZM376.114 365.98C376.168 365.6 375.83 365.122 375.5 365.342C370.196 368.892 348.062 370.992 46.3441 367.84C29.6681 367.666 16.1902 366.714 13.6802 365.172C12.3642 364.364 13.6942 369.258 14.1042 370.746C15.9202 377.33 14.1362 376.86 238.782 376.86C309.826 376.86 363.92 375.918 367.716 375.91C374.55 375.896 374.746 375.61 376.114 365.98ZM338.776 318C336.552 315.594 335.962 314.474 334.498 314.942L54.9081 314.912C52.2541 314.844 53.4761 314.8 51.7681 316.552C27.9101 341.032 18.5582 349.732 14.9122 354.284C3.08216 369.052 18.9882 366.042 344.812 364.644C396.496 364.422 376.584 358.898 338.776 317.998V318ZM328.906 130.196C320.67 128.598 74.2701 128.632 74.0661 128.64C59.0501 129.134 52.2041 128.292 52.2721 139.452C52.2781 140.436 51.8821 159.236 52.0101 183.006C52.2801 233.516 53.2021 310.046 53.2761 310.802C53.3861 311.912 53.1441 312.29 55.9681 312.36C58.7921 312.43 325.964 312.328 330.694 312.38C334.38 312.42 335.718 311.834 335.738 311.11C335.742 310.922 337.052 164.382 336.69 139.038C336.652 136.404 337.092 131.788 328.906 130.2V130.196Z" fill="black"/>
<path d="M321.688 139.656C329.54 140.022 329.336 140.138 329.322 145.104C329.308 149.972 327.432 295.506 326.48 302.336C326.252 303.976 325.438 304.19 322.916 304.264C318.662 304.388 68.1382 305.448 64.1222 304.658C62.0782 304.256 62.5562 303.332 62.4422 302.886C61.7322 300.08 60.6742 142.366 60.6562 141.442C60.6322 140.298 61.6342 139.76 62.7742 139.68C66.8742 139.394 308.99 139.064 321.69 139.656H321.688Z" fill="white"/>
<path d="M325.942 136.951C329.812 137.033 331.36 139.175 331.346 141.109C330.42 259.874 330.444 293.546 329.768 303.174C329.5 307.006 327.416 307.108 325.386 307.112C296.104 307.184 72.458 307.716 66.284 307.282C58.694 306.748 59.912 307.866 59.634 297.05C58.916 269.088 58.506 186.343 58.232 143.397C58.198 137.983 59.62 137.379 63.294 137.253C79.134 136.713 320.308 136.833 325.942 136.951ZM328.828 145.797C328.842 140.831 329.538 140.025 321.686 139.659C308.986 139.067 66.87 139.397 62.77 139.683C61.63 139.763 60.628 140.301 60.652 141.445C60.664 141.985 61.738 300.116 62.438 302.888C62.55 303.334 62.074 304.258 64.118 304.66C68.136 305.448 318.658 304.39 322.912 304.266C325.434 304.192 326.246 303.978 326.476 302.338C327.43 295.508 328.812 150.665 328.828 145.797Z" fill="black"/>
<path d="M323.914 342.394C325.646 344.956 324.728 347.644 320.4 347.792C303.596 348.37 86.6581 348.756 69.6201 348.192C63.5761 347.992 62.7821 344.62 66.1921 340.574C85.0581 318.188 82.2661 321.85 92.6741 321.584C97.1821 321.468 294.784 321.2 299.17 321.252C304.588 321.318 305.182 321.116 312.182 328.958C316.634 333.944 321.732 339.164 323.914 342.394ZM320.478 344.288C321.49 344.246 321.228 343.28 320.58 342.676C317.246 339.566 319.092 340.33 304.828 324.962C303.676 323.72 301.932 323.652 300.218 323.652C186.74 323.628 200.072 323.378 86.6001 324.318C83.7661 324.342 82.6761 325.264 69.1681 341.342C68.4201 342.234 66.1881 344.962 68.7161 345.134C99.7761 347.244 319.468 344.328 320.48 344.286L320.478 344.288Z" fill="black"/>
<path d="M320.648 162.964C319.436 245.654 319.016 285.114 318.958 286.242C318.692 291.46 319.332 293.85 313.17 294.576C289.034 297.416 107.826 294.366 83.5302 293.748C74.1102 293.508 69.9662 293.864 69.1642 284.732C68.8762 281.456 68.4262 155.662 68.4342 155.232C68.5262 150.32 72.0362 147.18 75.7322 147.078C76.2522 147.064 312.278 147.692 312.278 147.692C320.554 147.97 320.758 155.286 320.646 162.962L320.648 162.964ZM318.618 163.802C318.482 157.726 319.012 150.006 312.128 149.904L75.5182 149.35C72.5882 149.606 70.9282 152.202 70.6742 154.194C70.4902 155.636 70.5422 158.108 70.5622 163.502C70.5662 164.802 70.6642 164.4 72.0802 164.384C144.83 163.51 318.63 164.468 318.616 163.804L318.618 163.802ZM318.502 172.004C318.73 166.79 319.154 166.252 316.092 166.328C314.618 166.364 85.0762 166.582 71.3042 166.556C70.9682 166.556 70.6842 166.824 70.6862 167.334C70.7102 177.26 71.6782 278.11 71.6802 278.154C71.7602 285.03 70.8382 290.388 77.2002 290.816C98.5542 292.252 296.964 295.132 312.866 291.97C317.506 291.048 316.158 292.164 317.078 242.89C317.916 198.042 318.148 180.108 318.502 172.004Z" fill="black"/>
<path d="M100.472 152.298C105.86 152.184 105.988 160.584 100.642 160.74C94.6841 160.912 95.1021 152.414 100.472 152.298ZM100.374 158.884C104.034 158.86 103.416 153.968 100.394 154.182C96.9921 154.422 97.5561 158.904 100.374 158.884Z" fill="black"/>
<path d="M90.0742 152.528C92.2982 152.522 94.2262 154.64 94.1642 156.598C93.9642 162.848 85.6022 161.938 85.8742 156.924C85.7962 154.116 87.9322 152.534 90.0742 152.528ZM89.9042 159.13C93.6482 159.108 92.9022 154.224 89.9482 154.428C86.5302 154.664 87.1002 159.146 89.9042 159.13Z" fill="black"/>
<path d="M79.618 152.528C81.842 152.526 83.7661 154.65 83.7021 156.602C83.4961 162.862 75.1341 161.928 75.4121 156.924C75.3341 154.124 77.466 152.53 79.618 152.528ZM79.3701 159.13C83.1281 159.15 82.48 154.222 79.56 154.422C76.006 154.666 76.7081 159.116 79.3701 159.13Z" fill="black"/>
<path d="M144.012 235.07C144.352 235.164 144.342 235.186 144.256 238.4C144.246 238.804 143.978 238.928 143.35 238.95C142.898 238.966 114.18 239.308 112.89 239.272C112.126 239.25 112.142 239.072 112.252 238.318C112.51 236.546 112.11 235.466 112.764 235.266C112.954 235.208 143.68 234.978 144.012 235.07Z" fill="#024840"/>
<path d="M208.532 237.114C208.784 238.662 209.38 239.422 208.566 239.422C174.892 239.422 175.588 240.784 175.712 239.168C175.976 235.736 175.742 235.862 176.676 235.804C176.878 235.792 208.288 235.496 208.42 235.696C208.648 236.042 208.456 236.642 208.532 237.114Z" fill="#024840"/>
<path d="M273.974 238.082C274.028 238.302 274.114 238.534 274.082 238.744C273.86 240.154 251.82 238.924 240.776 239.114C239.602 239.134 239.902 238.914 240.114 235.652C240.152 235.072 240.728 235.002 241.486 235.058C242.43 235.128 272.588 235.092 273.284 235.054C274.564 234.982 273.408 235.756 273.976 238.082H273.974Z" fill="#024840"/>
<path d="M299.394 245.468C291.212 252.702 277.178 248.696 276.11 238.078C275.256 229.59 279.892 224.142 286.124 222.53C302.018 218.418 308.668 237.268 299.394 245.468Z" fill="#024840"/>
<path d="M236.82 241.354C232.486 250.98 219.144 251.078 213.278 243.784C211.542 241.626 211.186 239.87 210.508 236.268C209.808 232.548 213.604 224.53 218.784 222.856C232.954 218.278 242.026 229.794 236.82 241.354Z" fill="#024840"/>
<path d="M167.642 248.428C160.746 252.836 149.684 249.932 147.074 241.764C143.556 230.752 152.956 221.186 163.592 223.368C176.072 225.928 177.322 242.242 167.642 248.428Z" fill="#024840"/>
<path d="M106.942 226.92C114.834 235.038 108.826 250.476 96.5541 249.902C84.0001 250.394 77.3421 234.498 88.0501 225.728C94.4061 220.522 102.442 222.29 106.942 226.92Z" fill="#024840"/>
<path d="M305.538 234.358C305.404 236.548 305.516 238.808 304.622 241.002C300.622 250.82 290.564 253.196 282.56 249.798C276.654 247.292 274.776 241.07 274.576 241.002C273.996 240.804 274.566 241.142 265.376 241.134C240.724 241.108 239.864 240.404 238.816 241.508C238.158 242.202 238.162 243.796 235.078 247.208C229.456 253.426 213.62 252.444 209.706 241.638C209.288 240.486 209.694 241.396 176.116 241.692C174.274 241.708 174.156 246.646 169.456 249.734C160.48 255.634 147.94 252.186 144.784 241.098C144.652 240.636 144.332 240.596 143.79 240.65C143.186 240.712 117.24 240.918 112.444 241.074C111.734 241.096 111.48 241.98 111.388 242.184C108.696 248.212 104.568 250.042 103.57 250.746C102.008 251.848 92.076 253.946 85.694 247.912C76.492 239.21 80.286 222.066 96.346 220.476C102.886 219.828 111.692 225.53 112.186 232.778C112.23 233.41 112.878 233.588 113.506 233.586C144.458 233.466 144.468 233.586 144.856 232.704C146.31 229.412 145.99 229.35 148.016 226.79C154.366 218.758 168.886 218.462 174.702 229.822C176.414 233.166 174.936 234.124 176.868 234.062C208.776 233.044 208.544 234.86 208.782 232.992C210.662 218.226 232.064 214.134 238.896 228.128C240.706 231.838 239.548 233.368 240.794 233.336C270.12 232.584 273.928 233.92 274.188 232.708C278.39 213.156 306.54 217.848 305.534 234.354L305.538 234.358ZM299.394 245.466C308.56 237.362 302.17 218.376 286.124 222.528C279.894 224.14 275.256 229.574 276.11 238.076C277.178 248.694 291.212 252.7 299.394 245.466ZM274.08 238.744C274.114 238.534 274.026 238.302 273.972 238.082C273.406 235.756 274.562 234.982 273.28 235.054C272.584 235.094 242.426 235.128 241.482 235.058C240.722 235.002 240.146 235.072 240.11 235.652C239.898 238.914 239.598 239.134 240.772 239.114C251.702 238.926 273.858 240.156 274.08 238.744ZM236.82 241.354C241.734 230.442 233.8 218.004 218.784 222.856C213.604 224.53 209.808 232.548 210.508 236.268C211.186 239.87 211.542 241.626 213.278 243.784C219.142 251.08 232.486 250.98 236.82 241.354ZM208.566 239.422C209.378 239.422 208.784 238.662 208.532 237.114C208.456 236.642 208.648 236.044 208.42 235.698C208.288 235.496 176.876 235.792 176.676 235.806C175.742 235.864 175.976 235.738 175.712 239.17C175.586 240.794 174.968 239.422 208.566 239.422ZM167.64 248.428C177.3 242.256 176.096 225.932 163.59 223.368C152.908 221.178 143.572 230.808 147.072 241.764C149.682 249.932 160.742 252.836 167.64 248.428ZM144.254 238.4C144.342 235.186 144.352 235.164 144.01 235.07C143.678 234.978 112.952 235.206 112.762 235.264C112.11 235.464 112.508 236.544 112.25 238.316C112.14 239.07 112.124 239.248 112.888 239.27C114.178 239.306 142.894 238.964 143.348 238.948C143.976 238.926 144.242 238.804 144.254 238.4ZM96.552 249.904C108.824 250.478 114.832 235.04 106.94 226.922C102.534 222.39 94.526 220.422 88.048 225.73C77.342 234.5 83.998 250.396 96.552 249.904Z" fill="black"/>
<path d="M289.39 254.468C291.702 254.124 297.904 254.244 301.22 253.636C302.252 253.446 304.998 253.446 305.86 253.762C306.882 254.138 306.076 255.636 305.202 255.354C305.144 255.336 301.6 255.448 297.812 255.938C295.52 256.236 294.006 255.584 289.74 256.27C284.824 257.06 278.76 256.548 278.68 256.162C278.14 253.556 282.092 255.556 289.39 254.468Z" fill="black"/>
<path d="M91.404 256.996C108.696 256.996 110.246 256.128 110.476 257.488C110.54 257.868 110.028 258.516 109.546 258.612C109.2 258.68 107.458 258.594 106.27 258.65C95.488 259.166 103.544 258.972 95.454 258.904C85.378 258.818 86.004 258.982 85.06 258.7C84.042 258.394 84.632 257.468 85.138 257.23C85.932 256.856 91.404 256.948 91.404 256.996Z" fill="black"/>
<path d="M234.616 254.62C234.664 254.62 236.628 254.94 237.862 254.62C238.534 254.446 238.84 254.834 239.26 255.088C239.478 255.22 239.222 256.014 238.894 256.208C238.086 256.69 234.83 256.642 233.9 256.548C231.504 256.31 230.936 256.768 225.8 256.466C216.79 255.936 213.97 256.442 213.98 255.308C213.998 253.23 218.526 254.832 234.616 254.62Z" fill="black"/>
<path d="M173.312 255.584C174.282 256.198 173.95 257.068 173.254 257.282C171.924 257.694 151.696 257.94 149.498 257.204C148.47 256.86 149.186 255.75 149.81 255.738C149.858 255.738 173.264 255.554 173.312 255.584Z" fill="black"/>
<path d="M283.496 260.13C287.904 259.774 296.26 259.386 302.734 259.404C304.608 259.41 304.404 261.284 302.778 261.318C284.66 261.696 287.374 262.05 284.272 261.814C280.91 261.556 282.706 260.194 283.496 260.13Z" fill="black"/>
<path d="M152.302 262.496C150.91 262.506 151.172 260.694 152.794 260.724C152.996 260.728 168.752 260.29 169.754 260.602C170.878 260.952 170.746 262.1 169.716 262.296C168.89 262.454 152.512 262.494 152.302 262.496Z" fill="black"/>
<path d="M233.286 259.912C233.676 259.844 235.038 260.146 234.796 261.026C234.412 262.416 233.796 261.764 217.948 261.304C215.802 261.242 216.454 259.44 218.046 259.424C220.7 259.4 233.288 259.91 233.288 259.91L233.286 259.912Z" fill="black"/>
<path d="M86.8418 262.466C87.0158 260.69 89.5818 262.168 102.834 261.112C104.314 260.994 104.232 262.704 103.184 262.986C101.904 263.33 88.9538 263.432 88.7458 263.414C87.5818 263.308 86.7838 263.038 86.8418 262.466Z" fill="black"/>
<path d="M154.498 234.51C154.508 233.746 154.902 233.094 155.268 232.976C155.566 232.88 156.43 233.424 156.578 233.858C158.15 238.49 157.926 238.872 158.7 238.176C166.516 231.158 167.13 230.554 168.134 231.56C168.406 231.832 168.212 233.07 167.356 233.712C156.502 241.848 158.066 246.66 154.498 234.51Z" fill="black"/>
<path d="M91.0039 234.052C91.0079 231.754 92.7459 232.344 93.1259 233.502C94.6359 238.112 94.3919 238.336 95.1119 237.728C98.0739 235.224 102.264 231.026 103.66 230.714C104.804 230.458 105.008 232.3 104.084 232.978C94.4979 240.004 94.1239 246.82 91.0039 234.052Z" fill="black"/>
<path d="M294.24 234.738C286.16 241.928 287.048 242.76 284.68 235.404C284.588 235.116 284.112 233.378 284.076 233.086C284.01 232.55 284.432 231.786 284.806 231.688C286.392 231.276 287.094 236.224 287.468 236.94C288.14 238.226 295.37 229.018 297.39 230.066C299.142 230.976 295.716 233.422 294.24 234.734V234.738Z" fill="black"/>
<path d="M221.948 240.298C221.398 240.298 221.148 239.978 220.97 239.592C220.412 238.392 219.854 237.202 219.642 235.864C219.45 234.656 218.68 233.376 218.79 232.51C218.854 232.004 219.354 231.46 219.666 231.444C220.97 231.38 221.362 233.946 222.138 236.468C222.386 237.272 222.32 237.564 227.474 232.564C233.082 227.122 233.316 230.982 231.622 232.214C229.236 233.948 224.602 238.952 221.95 240.3L221.948 240.298Z" fill="black"/>
<path d="M225.55 131.429C224.488 133.493 223.788 133.999 218.116 141.273C212.46 148.527 216.212 143.985 184.99 186.263C182.682 189.387 183.426 190.363 163.38 150.985C163.23 150.693 163.258 150.545 163.594 150.483C165.068 150.211 175.99 145.741 176.192 146.151C182.014 157.905 185.256 165.341 185.646 165.827C186.854 167.339 184.368 169.745 222.604 124.307C223.202 123.595 222.73 123.791 225.55 131.429Z" fill="#E4FD6F"/>
<path d="M185.166 97.4784C229.406 87.6224 267.414 135.578 242.316 177.85C221.274 213.288 167.34 212.614 147.886 172.422C132.792 141.238 153.388 104.558 185.166 97.4784ZM203.09 166.282C228.344 132.13 229.26 133.666 227.83 129.748C224.544 120.748 224.796 121.302 224.548 120.742C223.986 119.468 222.514 119.97 221.91 120.712C221.866 120.766 187.22 161.974 187.176 162.022C186.68 162.572 186.66 161.872 185.848 160.168C178.103 143.93 178.198 144.192 178.084 143.908C177.646 142.834 176.268 142.648 175.382 143.138C172.254 144.87 163.81 147.098 160.286 149.334C158.798 150.278 174.35 178.338 174.462 178.542C184.77 197.47 182.196 194.54 203.09 166.282Z" fill="#024840"/>
<path d="M252.982 143.218C257.76 179.086 225.8 211.822 187.58 205.704C161.162 201.474 141.244 178.072 140.098 153.304C139.828 147.474 141.14 134.84 143.612 129.738C146.194 124.41 145.31 119.324 163.898 103.518C170.18 98.1761 184.838 92.7101 196.596 93.2701C214.98 94.1461 226.376 97.6181 240.14 113.822C246.936 121.822 251.322 134.026 251.522 134.988C252.088 137.714 252.614 140.454 252.982 143.214V143.218ZM242.316 177.85C273.796 124.83 206.994 68.6401 160.27 110.91C141.184 128.176 139.274 154.63 147.886 172.422C167.34 212.614 221.274 213.288 242.316 177.85Z" fill="black"/>
<path d="M227.828 129.748C229.258 133.666 228.342 132.13 203.088 166.282C202.164 167.53 186.608 190.442 184.342 190.442C180.852 189.96 181.39 191.268 174.46 178.544C174.35 178.342 163.334 157.838 162.548 155.942C162.182 155.062 161.562 153.404 161.336 152.954C160.974 152.232 159.282 149.974 160.284 149.338C163.806 147.102 172.252 144.872 175.38 143.142C176.266 142.652 177.644 142.838 178.082 143.912C178.198 144.194 178.1 143.932 185.846 160.172C186.658 161.876 186.678 162.578 187.174 162.026C187.218 161.978 221.864 120.77 221.908 120.716C222.514 119.972 223.984 119.47 224.546 120.746C224.794 121.306 224.54 120.746 227.828 129.752V129.748ZM218.116 141.27C223.788 133.998 224.488 133.49 225.55 131.426C222.732 123.788 223.204 123.594 222.604 124.304C184.366 169.744 186.852 167.334 185.646 165.824C185.256 165.336 182.014 157.902 176.192 146.148C175.99 145.738 165.068 150.208 163.594 150.48C163.258 150.542 163.23 150.688 163.38 150.982C183.426 190.362 182.682 189.386 184.99 186.26C216.212 143.982 212.46 148.524 218.116 141.27Z" fill="black"/>
<path d="M383.616 46.0445C386.142 47.4525 386.274 47.5905 385.68 47.8165C383.244 48.7405 377.244 49.9525 374.254 50.4005C371.264 50.8485 371.48 51.4285 370.492 53.6185C365.678 64.2885 366.452 63.5245 365.916 64.4265C364.44 63.0045 361.224 51.5365 361.204 51.4865C360.25 48.5265 346.512 51.6025 345.442 49.7445C344.834 48.6885 353.912 43.0885 354.59 42.6025C358.252 39.9705 351.18 31.8005 352.312 30.5545C352.79 30.0285 353.368 30.7245 356.756 32.1405C365.62 35.8465 364.964 36.1565 367.952 34.0625C376.554 28.0365 376.032 28.6785 376.032 29.4425C373.85 43.0385 370.752 38.8765 383.616 46.0445Z" fill="#E4FD6F"/>
<path d="M261.596 33.8648C258.21 38.0988 253.54 35.9868 253.27 33.1448C253.006 30.3548 255.548 28.8488 256.78 28.9588C261.866 29.4088 261.922 33.4588 261.596 33.8648Z" fill="white"/>
<path d="M143.934 39.9687C142.99 39.6667 140.018 39.4207 136.632 37.5927C134.48 36.4307 133.976 38.6707 129.534 46.5067C128.93 47.5727 128.768 43.6007 128.686 42.6327C128.492 40.3247 128.734 38.6807 126.996 38.2667C116.884 35.8547 119.206 36.1967 123.652 33.4187C127.22 31.1887 128.562 30.8627 128.136 28.4967C127.306 23.9007 126.934 24.4567 127.498 23.2627C129.382 24.2367 130.366 26.0527 131.88 27.4487C133.536 28.9767 133.54 28.5887 139.864 25.0107C140.058 24.9007 140.384 24.7307 140.6 25.1427C140.812 25.5487 139.354 29.0427 139.042 29.6607C138.4 30.9327 137.902 32.1587 139.062 33.1807C140.814 34.7247 142.048 36.7387 143.686 38.3847C143.886 38.5847 144.576 39.8087 143.934 39.9707V39.9687Z" fill="#E4FD6F"/>
<path d="M40.484 51.4585C46.662 51.3605 48.05 59.9965 41.452 61.5745C38.756 62.2185 35.96 60.4265 35.236 57.7485C34.422 54.7405 37.174 51.1725 40.484 51.4585Z" fill="white"/>
<path d="M376.728 38.816C376.172 40.606 391.874 45.372 389.814 48.674C388.878 50.172 388.122 49.782 382.292 51.468C381.718 51.634 373.85 53.084 373.802 53.09C373.228 53.192 373.452 53.552 372.098 56.828C372.078 56.876 367.536 67.196 367.312 67.606C366.68 68.76 365.02 68.764 364.352 67.626C360.028 60.248 360.166 52.898 358.56 52.886C349.904 52.816 347.942 53.612 343.304 52.2C342.106 51.836 341.518 50.088 342.842 48.456C343.192 48.024 346.318 45.488 351.356 41.952C352.73 40.988 353.22 40.944 352.846 39.566C351.33 33.978 346.914 27.058 351.852 27.78C353.722 28.054 357.008 29.538 363.74 32.03C365.37 32.634 365.124 32.978 374.142 26.914C377.162 24.884 379.29 25.38 378.508 29.756C378.044 32.356 377.3 36.974 376.728 38.816ZM385.68 47.816C386.274 47.59 386.142 47.452 383.616 46.044C370.766 38.884 373.85 43.044 376.032 29.444C376.032 28.68 376.554 28.038 367.952 34.064C364.964 36.158 365.62 35.846 356.756 32.142C353.368 30.726 352.788 30.03 352.312 30.556C351.182 31.8 358.22 39.996 354.59 42.604C353.914 43.09 344.834 48.688 345.442 49.746C346.506 51.592 360.26 48.56 361.204 51.488C361.224 51.536 364.442 63.006 365.916 64.428C366.452 63.528 365.678 64.292 370.492 53.62C371.48 51.43 371.27 50.85 374.254 50.402C377.238 49.954 383.244 48.74 385.68 47.816Z" fill="black"/>
<path d="M348.512 60.2063C349.792 59.5463 351.232 61.3183 349.952 62.2743C349.016 62.9743 346.774 63.9443 345.192 64.8583C342.306 66.5243 344.922 69.6283 345.042 73.0943C345.14 75.9463 343.162 79.2543 340.126 79.5343C336.928 79.8283 326.918 78.5023 327.916 83.4443C328.722 87.4323 332.69 89.0143 332.706 90.8823C332.744 95.4683 324.474 92.8403 314.334 96.3823C312.12 97.1563 316.606 100.11 317.61 103.82C318.084 105.568 316.684 107.28 314.698 107.582C306.536 108.826 302.002 113.36 300.494 110.488C300.072 109.684 300.95 108.972 301.376 108.77C303.568 107.72 310.16 104.976 314.218 104.578C315.474 104.456 312.238 101.044 311.176 98.2003C309.61 94.0083 315.002 93.2983 317.694 92.6843C328.438 90.2383 331.652 92.9503 327.634 89.0483C322.34 83.9063 324.626 76.8123 333.272 76.6063C339.21 76.4643 343.14 77.7303 341.932 71.8943C341.29 68.7923 340.278 66.6903 342.082 64.3143C343.932 61.8803 345.476 61.7663 348.512 60.2003V60.2063Z" fill="black"/>
<path d="M263.044 34.9165C259.39 39.7105 254.56 39.0445 252.666 36.9225C249.24 33.0805 251.706 27.9625 254.204 26.8505C255.674 26.1965 259.696 26.5045 260.718 27.3865C263.044 29.3965 264.788 32.6325 263.044 34.9165ZM257.238 29.2825C254.4 29.0805 253.512 30.9385 253.722 33.1385C253.918 35.1945 256.392 36.9025 258.894 35.5285C262.962 33.2965 260.616 29.5205 257.238 29.2825Z" fill="black"/>
<path d="M249.848 46.1021C250.228 47.9561 249.182 46.5141 247.96 49.4901C247.106 51.5681 248.866 52.8041 249.46 55.2681C250.718 60.4861 246.49 60.9381 243.054 62.6241C236.788 65.6961 243.346 65.5041 244.388 70.9541C244.77 72.9501 244.33 74.4641 242.242 75.1941C232.75 78.5141 234.324 79.1061 233.324 84.1261C233.166 84.9141 232.632 85.3361 231.918 85.3521C231.086 85.3701 230.932 85.0261 230.706 84.1341C230.478 83.2381 230.768 82.4641 230.872 81.6361C230.972 80.8281 230.888 77.7281 233.276 75.9701C239.83 71.1481 243.01 73.7241 240.996 70.3321C240.488 69.4761 239.682 68.8461 238.952 68.1661C237.064 66.4081 236.566 63.3881 239.38 61.2041C240.524 60.3181 243.502 59.2321 245.976 58.0541C247.646 57.2601 246.906 55.7021 246.034 54.0921C244.422 51.1121 245.548 47.4521 247.046 45.9961C247.918 45.1501 249.632 45.0321 249.85 46.0981L249.848 46.1021Z" fill="black"/>
<path d="M155.608 81.6986C156.242 84.9446 147.64 82.2726 149.576 76.2766C150.032 74.8606 151.16 73.1666 150.886 72.7766C150.13 71.7026 149.416 71.9626 147.804 71.9546C145.156 71.9386 142.874 69.8126 143.68 66.6726C144.67 62.8226 146.28 61.8766 146.104 60.4846C145.964 59.3706 145.422 58.6946 144.386 58.2266C143.408 57.7846 142.544 57.0926 141.62 56.5286C141.042 56.1746 139.372 55.5746 138.304 53.2426C135.7 47.5506 139.87 47.0846 139.9 50.2966C139.942 54.5606 147.076 54.8446 148.506 59.5846C149.222 61.9546 146.868 63.7266 146.256 67.9626C146 69.7346 147.06 69.5346 148.88 69.5346C150.74 69.4126 152.71 70.5226 153.32 72.4806C153.592 73.3566 153.524 73.1386 152.22 76.2786C150.03 81.5506 155.264 79.9586 155.604 81.7006L155.608 81.6986Z" fill="black"/>
<path d="M147.088 39.2544C150.014 44.9784 146.164 42.7944 140.984 41.8384C134.482 40.6404 138.014 37.1464 131.55 47.6904C130.362 49.6284 130.566 49.4804 129.73 49.9924C128.352 50.8364 127.186 49.5584 127.028 48.6144C125.596 40.0384 125.91 40.3764 125.072 40.1384C121.236 39.0504 114.836 37.2564 117.936 34.4724C118.684 33.8004 119.412 33.1184 120.434 32.8264C120.536 32.7964 124.104 30.7344 125.156 30.1644C126.412 29.4824 126.006 30.1444 125.04 23.4564C124.914 22.5804 124.806 21.6944 124.782 20.8124C124.752 19.7424 125.906 19.0804 126.792 19.6824C136.944 26.5824 129.796 27.0684 139.122 22.6224C139.906 22.2484 140.626 21.7164 141.518 21.5604C142.306 21.4224 143.226 21.7744 143.456 22.5444C143.878 23.9564 143.844 23.1584 141.464 30.4544C140.994 31.8944 141.562 31.8204 143.674 34.5784C144.102 35.1384 146.774 38.6304 147.092 39.2524L147.088 39.2544ZM143.934 39.9704C144.578 39.8064 143.886 38.5844 143.686 38.3844C142.046 36.7384 140.814 34.7244 139.062 33.1804C137.902 32.1584 138.4 30.9324 139.042 29.6604C139.354 29.0424 140.812 25.5484 140.6 25.1424C140.494 24.9404 140.258 24.7884 139.864 25.0104C133.54 28.5904 133.536 28.9784 131.88 27.4484C130.366 26.0504 129.382 24.2364 127.498 23.2624C126.934 24.4544 127.306 23.9004 128.136 28.4964C128.564 30.8624 127.22 31.1884 123.652 33.4184C119.206 36.1964 116.884 35.8564 126.996 38.2664C128.734 38.6804 128.492 40.3264 128.686 42.6324C128.768 43.6004 128.928 47.5724 129.534 46.5064C133.974 38.6724 134.48 36.4304 136.632 37.5924C140.018 39.4204 142.99 39.6664 143.934 39.9684V39.9704Z" fill="black"/>
<path d="M90.2979 111.379C90.4079 112.211 88.6019 113.325 87.9219 111.983C87.2039 110.565 87.4979 108.775 85.2299 107.729C83.0199 106.711 81.5199 107.909 78.5699 105.641C76.6319 104.151 75.4639 100.905 76.5439 97.0247C78.7779 89.0007 62.1039 98.5567 63.9939 81.3347C64.1159 80.2247 62.9959 78.5067 60.0319 78.2727C56.9459 78.0287 52.0059 79.0367 49.5519 74.5967C46.6419 69.3347 50.0179 69.0187 50.6079 70.8527C51.3819 73.2587 52.2979 75.2847 55.2859 75.3507C59.7359 75.4507 61.7899 75.3107 63.5559 76.3527C66.2619 77.9487 67.1299 80.6227 66.7539 82.5747C66.4619 84.0927 66.5139 86.8946 67.5919 87.9007C72.5279 92.5126 76.3879 87.0207 79.5719 94.8027C80.1799 96.2887 79.2639 97.8547 79.0559 100.595C78.8699 103.049 81.2999 104.239 83.7579 104.289C86.9119 104.355 89.2459 106.553 90.0039 109.361C90.1799 110.013 90.2079 110.705 90.2959 111.377L90.2979 111.379Z" fill="black"/>
<path d="M48.482 56.6625C48.248 62.5625 43.18 64.7825 40.348 64.6265C33.488 64.2485 30.876 57.6805 33.334 52.8985C36.826 46.1045 48.25 47.4465 48.484 56.6605L48.482 56.6625ZM41.452 61.5745C48.05 59.9965 46.66 51.3605 40.484 51.4585C37.174 51.1705 34.422 54.7405 35.236 57.7485C35.96 60.4265 38.756 62.2185 41.452 61.5745Z" fill="black"/>
</svg>
